/* XPM */
static char *_7b38ada5f144f288d354f192ea25744peCyxi4jAuucDjNL[] = {
/* columns rows colors chars-per-pixel */
"50 50 200 2 ",
"   c white",
".  c #DDE3D6",
"X  c #37550C",
"o  c #389130",
"O  c #37530D",
"+  c #395912",
"@  c #378E2A",
"#  c #FEFEFE",
"$  c #FEFFFE",
"%  c #38570F",
"&  c #3FB18A",
"*  c #3FAF86",
"=  c #A0E0BF",
"-  c #385107",
";  c #FCFDFB",
":  c #37902D",
">  c #386F1D",
",  c #2E8A24",
"<  c #71C9A1",
"1  c #75CEAA",
"2  c #A6E4C5",
"3  c #379332",
"4  c #338C28",
"5  c #41BD9A",
"6  c #F7FAF7",
"7  c #328A24",
"8  c #5FBF98",
"9  c #399033",
"0  c #E4E8DF",
"q  c #73CCA8",
"w  c #3B7C42",
"e  c #41B492",
"r  c #40B993",
"t  c #3AAD84",
"y  c #ABE9CE",
"u  c #389734",
"i  c #3C8148",
"p  c #364700",
"a  c #A8E7CB",
"s  c #6CC59B",
"d  c #38510C",
"f  c #374D04",
"g  c #51A962",
"h  c #387E25",
"j  c #6DC69F",
"k  c #399435",
"l  c #3FB58E",
"z  c #399744",
"x  c #6ABF92",
"c  c #376115",
"v  c #38892C",
"b  c #40B28D",
"n  c #77C088",
"m  c #76CBA2",
"M  c #63C199",
"N  c #A3E1C2",
"B  c #2C851B",
"V  c #94DBB8",
"C  c #0A9A5F",
"Z  c #2E4C02",
"A  c #37761F",
"S  c #B1D4AD",
"D  c #3FAB7C",
"F  c #55A657",
"G  c #218216",
"H  c #397735",
"J  c #3EAF80",
"K  c #7BB779",
"L  c #EEF4ED",
"P  c #3B6A28",
"I  c #56BD96",
"U  c #3C8D59",
"Y  c #80D1AC",
"T  c #9ADFBF",
"R  c #3EA972",
"E  c #77D2AD",
"W  c #E4F4EE",
"Q  c #378D2E",
"!  c #E1EFE0",
"~  c #378B24",
"^  c #409538",
"/  c #A2B695",
"(  c #366817",
")  c #5A793E",
"_  c #4DA65F",
"`  c #2D4700",
"'  c #7E9465",
"]  c #377A22",
"[  c #3BA261",
"{  c #3A8229",
"}  c #3B793D",
"|  c #5AB073",
" . c #DDEBDB",
".. c #38933A",
"X. c #3AA569",
"o. c #3D8752",
"O. c #489F4D",
"+. c #50884E",
"@. c #89D4B1",
"#. c #325107",
"$. c #3E9462",
"%. c #009456",
"&. c #9ADCBC",
"*. c #4EB990",
"=. c #ACC0A2",
"-. c #526C2E",
";. c #8BCEA3",
":. c #57AA5C",
">. c #DEF2EB",
",. c #389D38",
"<. c #3DA25E",
"1. c #3EA478",
"2. c #39691A",
"3. c #56AE6B",
"4. c #DBE1D3",
"5. c #42C5A3",
"6. c #3CA86D",
"7. c #4E9F49",
"8. c #7CD7B9",
"9. c #BDE9D3",
"0. c #39963F",
"q. c #43B895",
"w. c #308F28",
"e. c #37AC7E",
"r. c #3A984C",
"t. c #466220",
"y. c #214400",
"u. c #B6F4DF",
"i. c #69814C",
"p. c #203B00",
"a. c #1AA16A",
"s. c #BCDBBD",
"d. c #64BB87",
"f. c #67B26E",
"g. c #32871E",
"h. c #9FAF8C",
"j. c #CCEDDE",
"k. c #D2DDCB",
"l. c #3F873E",
"z. c #3AA057",
"x. c #48B48D",
"c. c #409B6B",
"v. c #5DB579",
"b. c #489F54",
"n. c #50B282",
"m. c #92D8B4",
"M. c #42B79B",
"N. c #169F66",
"B. c #386F30",
"V. c #82C995",
"C. c #769F72",
"Z. c #52A250",
"A. c #B1D7B4",
"S. c #3B9C54",
"D. c #6FC297",
"F. c #3CA367",
"G. c #33751A",
"H. c #2B5004",
"J. c #6DB77F",
"K. c #3B9F5A",
"L. c #F3F9F5",
"P. c #E8EFE5",
"I. c #79CDA6",
"U. c #B0EDD3",
"Y. c #479842",
"T. c #2D943F",
"R. c #609C6A",
"E. c #12A26D",
"W. c #45B28B",
"Q. c #4C7734",
"!. c #64C4A2",
"~. c #558A49",
"^. c #5EB685",
"/. c #DBEEE2",
"(. c #708D5B",
"). c #8FC08A",
"_. c #83B97E",
"`. c #8DC492",
"'. c #426E2C",
"]. c #80C18A",
"[. c #A8DBC9",
"{. c #99D3B9",
"}. c #2CA875",
"|. c #399E54",
" X c #2F5D0C",
".X c #89A87F",
"XX c #80B48A",
"oX c #3F7A41",
"OX c #77A97B",
"+X c #B5C8AD",
"@X c #C9E7D4",
"#X c #60A978",
"$X c #037000",
"%X c #AFB79A",
"&X c #89A077",
"*X c #6B8751",
"=X c #2F6F15",
"-X c #1CA26B",
";X c #FFE30C",
":X c #DD5530",
/* pixels */
"                                                  # ; #                                             ",
"                                                #       $                                           ",
"                                            # ;   s.K A.  ; #                                       ",
"                                          $       ).$X_.      $                                     ",
"                                        $   L S s.`.F ].s.A.!   #                                   ",
"                ; ; ; ; ; ; ; ; #       ;   ).G ..;.u.n G G K   # $ # # # $ $ $ # #                 ",
"                                  $     ;   _.G ^ ;.y n 4 4 K   #                                   ",
"          $   L.S S S S S S S S k.  #   #   A.f.n m.y n 7 , K   # ; 6 6 6 6 6 6 6 6 ;               ",
"          #   P.@ , , , , , , G f.  ; $ #   j.a y = a n , , K     &Xt.-.Q.7.7.l.-.t.=.  ;           ",
"               .o Q : : : : 9 , K   $       j.V = = y n , , K     ' y.Z  Xw.w.=XZ y./   #           ",
"        # 6   @XZ.F F F F F F O.`.  6 6 6 ; 9.T = V T n 7 , K     .XQ.) ~.:.:.~.) Q.=.  6 #         ",
"    #   >.e.}.I 2 &.= = = = = a V.Y.Z.7.7.^ ].a &.m q | 7 3 { -.t.XXa T = = = = &.2 (.t.-.0   #     ",
"    #   /.C %.e.9.a 2 = N N = y n G B , : G n U.T m q v.w.,.A p p.OXU.N 2 = = a y u.~.p.Z .   #     ",
"    $   W j s j m j @.N = = = 2 ;.:.f.7.o , J.T @.m q | G.h H oXB.J.T @.V = 2 ;.OXXX.X' ' P.  #     ",
"              j.C %.*.a &.= = = 2 a u.J.4 4 3.< s s E R.p f w 5.l I j M I.= y R.p.#.0               ",
"          ;   9.C C 8 9.2 2 N N N = U.f.B B | 8.q < E R.#.X w q.e.8 I.< Y y u.C.` + .   ;           ",
"          $   L.9.j.@.J J j Y Y Y I.Y x v.d.g O._ n.I $.- - w 5 * x.*.*.n.F :.Y.] {  .  #           ",
"          # ;       {.%.C *.< s s s s < q 8._ B 9 R r U - - w 5 * * t & X.B , @ 3 ^ !   ;           ",
"                    &.C N.I Y q 1 1 1 < s 1 g 4 0.D 5 U f f } 5 * l r 5 D : u k 3 ^ L               ",
"    ;   W 8 8 8 8 M J N.E.z.O.b.O.b.Y.v.< 1 g 4 k z r...h ] r.e l o.P H B.( 2.2.2.2.*X(.(.P.  #     ",
"        >.C C C C C C N.E.T.~ 4 4 @ B 3.q 1 _ 7 o @ @ : k : z.e r } p - - O O O O O Z Z Z 4.  ;     ",
"  ; W L @X-Xa.a.a.a.a.N.E.T.: 9 o 9 7 3.q 1 g 4 9 o o o o @ S.e r w - + + + + + + + + + + 0         ",
"  /.0.k :.T m.V V V V V &.m x j | 4 9 k ^ : 3.< d.'.#.} & * U + + U * 1.n.D.x x x x x x s C.i.i.0   ",
"   .4 B Z.u.y a 2 2 2 2 y @.j E v.g.: @ : B | 8.D.'.p w 5 5 U p p U 5 & *.Y 1 1 1 1 E E 8.P p.y.k.  ",
"  /.r.z _ ;.V.;.= = &.m.V I.s q ^.0.r...9 4 _ d.| P f B.c.c.o.B.P $.l t x.M 8 M M M ^.#X#XC.i.) 0   ",
"  >.b M.R B G Z.a N @.M s j < < 8 b M.<.@ 9 4 7 g.c % X - p } 5.r l * * * t t t t l B.` Z 0   $     ",
"  >.e.& 6.@ 7 :.y 2 @.j < < < m 8 t e z.~ : o k Q c X + + - w 5 * & & & & b b b & q.oXX + .   #     ",
"  W 8 !.^.r.z _ V.V.D.8 M 8 8 M I * e F.z S.9 h ] c X c > c l.D X.6.6.6.F.$.$.$.$.c.+X+X=.L   #     ",
"  $ ;   >.W.e R 7 7 |.b * * * * * * * & * 5 w f % % O > u o o @ @ @ Q o h f X X X % 4.              ",
"        W t & X.@ ~ K.e & & & & & b b b & 5 w - + + O > u o o o o o o u { d + X #.X 4.  ;           ",
"    #   W I 8 n.k 9 K.* D J J J D 1.D D 1.* } - + + O 2.o v v v v v v Q h O % t.-.-..   #           ",
"          6 ; W W.b <.@ 9 o o k h O + % % % % + + % % % % % % % % + + + + + H./   L.#               ",
"              6 q.M.<.g.4 7 7 w.G.f f X % % X d O % % % % % % d O - f - - - ` %X      #             ",
"        L.[.[.{.<.[ _ g g g g 3.b.w o.P X % ( A > + % % + % c A > H i i i i w C./ h.L   #           ",
"    #   >.e.t X.~ g.3.8.q 1 1 E !.l 5.i - O ] ,.Q c % + + O > ,.@ 6.5 r r l 5.i ` y./   ;           ",
"    #   W x.e R 4 , g q s < < m 8 t 5 i f d A u v c d % + O > u ~ F.e & & * q.o.- Z /   ;           ",
"    #   ! z ..b.x d.D.< m I W.*.R ..z 9 { { Q o : v v A O O > u Q ..z 0.0.z 0.S.1.1.+.) ) 0   #     ",
"    #   ! o 7 O.1 < < j m *.t b F.~ @ o 3 3 o o o o u h O % > u Q : @ @ @ : ~ K.e r H ` #..   #     ",
"    #   ! 9 4 O.E q q q E I & q.6.@ k : @ @ @ @ @ @ : ] d d > ,.o 3 3 3 3 k @ <.e r } - + 0   #     ",
"    #   ! 9 : ^ +.+.+.+.+.i w i H > ( l.X.[ [ [ [ [ X.r.A ] A > > > > > > > > H i i P X + 0   #     ",
"    #   ! 9 3 { - X X X X X X X X + f o.r * & & & * e F.@ u ] d % % % % % % % % X X % % + 0   #     ",
"    #   ! @ : h d X O O O O O O O % p U 5.r l * & b M.6.: ,.h f % O O O O O O O O O O O % .   #     ",
"        ;  . . .4.. . . . . . . . 4.0 =.H H c.l J K.|.l.2.( / 0 4.. . . . . . . . . . . 4.;         ",
"                                      =.` p o.r D ..@ A d Z /                                       ",
"          # # # # # # # # # # # # ;   =.H.- U 5 J z u h % H.h.  ; # # # # # # # # # # # #           ",
"                                  $   L k.. ' c P 2. X' . k.L   $                                   ",
"                                    $       ' y.Z #.y.'       $                                     ",
"                                      # ;   h.) i.i.) h.  ; #                                       ",
"                                                      #                                             ",
"                                            # # # # # #                                             "
};
