/* XPM */
static char *cf3209e238e4448ebf8f430dea075b84cnfDPDP8nCcp7iCO[] = {
/* columns rows colors chars-per-pixel */
"50 50 246 2 ",
"   c #136C0E",
".  c #156E10",
"X  c #1E7719",
"o  c #1E781A",
"O  c #197315",
"+  c #0F680A",
"@  c #227B1D",
"#  c #257E20",
"$  c #3D5574",
"%  c #3B526B",
"&  c #6D505C",
"*  c #5C566D",
"=  c #59596C",
"-  c #435273",
";  c #4D5979",
":  c #595A73",
">  c #585876",
",  c #4A516D",
"<  c #685968",
"1  c #775C66",
"2  c #665876",
"3  c #6E4E68",
"4  c #5A6477",
"5  c #516272",
"6  c #656777",
"7  c #796B77",
"8  c #736F76",
"9  c #77625F",
"0  c #CC363D",
"q  c #B8403F",
"w  c #D04B3C",
"e  c #BD3C4A",
"r  c #BC3D57",
"t  c #BF2645",
"y  c #B13F61",
"u  c #C53648",
"i  c #CC3D4C",
"p  c #C73B47",
"a  c #D33D4D",
"s  c #D4394B",
"d  c #C93B55",
"f  c #D33D53",
"g  c #D73754",
"h  c #CC3C63",
"j  c #984A5A",
"k  c #88575A",
"l  c #97575A",
"z  c #8C4F5F",
"x  c #BA4447",
"c  c #A64958",
"v  c #B94558",
"b  c #B05656",
"n  c #B8685E",
"m  c #974D65",
"M  c #8A5365",
"N  c #885667",
"B  c #955168",
"V  c #975366",
"C  c #8C516E",
"Z  c #A64967",
"A  c #B95663",
"S  c #B25266",
"D  c #836469",
"F  c #886A78",
"G  c #947671",
"H  c #B26A6C",
"J  c #C5424D",
"K  c #CA434C",
"L  c #CC4548",
"P  c #D4454B",
"I  c #C24354",
"U  c #CB4152",
"Y  c #C84758",
"T  c #D34554",
"R  c #CB5A54",
"E  c #CA5857",
"W  c #D55B55",
"Q  c #D45A5B",
"!  c #D65859",
"~  c #CE574D",
"^  c #E85B5E",
"/  c #CA6357",
"(  c #D9635C",
")  c #D6675B",
"_  c #D8745B",
"`  c #D46C53",
"'  c #E3655A",
"]  c #E1795C",
"[  c #C95565",
"{  c #D75963",
"}  c #C74A64",
"|  c #E75963",
" . c #C96765",
".. c #D46564",
"X. c #DA6A67",
"o. c #DD7563",
"O. c #D97966",
"+. c #C96975",
"@. c #C67578",
"#. c #DB7773",
"$. c #E46865",
"%. c #E47968",
"&. c #E9796E",
"*. c #278022",
"=. c #2A8325",
"-. c #2E8729",
";. c #2E882A",
":. c #328B2D",
">. c #358E30",
",. c #389133",
"<. c #B08972",
"1. c #9E837C",
"2. c #DC8469",
"3. c #DB956C",
"4. c #C98478",
"5. c #D68B79",
"6. c #CB9071",
"7. c #E58C6E",
"8. c #E8876A",
"9. c #E4936D",
"0. c #EB926B",
"q. c #E59466",
"w. c #F3966A",
"e. c #EA8C73",
"r. c #E78977",
"t. c #F78A74",
"y. c #EC9473",
"u. c #E99878",
"i. c #F29473",
"p. c #F69878",
"a. c #F58A6D",
"s. c #EBA47B",
"d. c #F7A978",
"f. c #F7B77C",
"g. c #EDAC76",
"h. c #D5A67C",
"j. c #FBC47D",
"k. c #4E5B82",
"l. c #4E6284",
"z. c #536285",
"x. c #576789",
"c. c #5A6A94",
"v. c #6C7799",
"b. c #747B9C",
"n. c #676E8D",
"m. c #797EA7",
"M. c #6B7FA5",
"N. c #685982",
"B. c #8E7884",
"V. c #B07085",
"C. c #CD7489",
"Z. c #E77096",
"A. c #7A849A",
"S. c #73848E",
"D. c #5788BE",
"F. c #7584A5",
"G. c #7886A7",
"H. c #748FAD",
"J. c #548AC4",
"K. c #7BAADE",
"L. c #61A3DF",
"P. c #5EA8EC",
"I. c #5DA5E7",
"U. c #5DB0F4",
"Y. c #62A5E4",
"T. c #63A7E9",
"R. c #63A9E9",
"E. c #7BABE0",
"W. c #64B0F4",
"Q. c #60A1DB",
"!. c #89868A",
"~. c #848898",
"^. c #989899",
"/. c #919196",
"(. c #BA848C",
"). c #858CA6",
"_. c #8794A8",
"`. c #9699A5",
"'. c #8A97B5",
"]. c #9394B4",
"[. c #94A3B6",
"{. c #B3B3B9",
"}. c #BC87A3",
"|. c #D18C92",
" X c #ED9786",
".X c #FBB885",
"XX c #F0AB8C",
"oX c #CF90A5",
"OX c #C6B9B9",
"+X c #D4AAAE",
"@X c #E3AD9E",
"#X c #FDC584",
"$X c #FECA8A",
"%X c #FCC686",
"&X c #EFCA86",
"*X c #F6CBB4",
"=X c #8A99C2",
"-X c #99AED6",
";X c #97ADD6",
":X c #9CB1D7",
">X c #9BA9C4",
",X c #ADBEDB",
"<X c #A4B7D7",
"1X c #B4BDD8",
"2X c #AFB0C6",
"3X c #91BAEB",
"4X c #A6BAE4",
"5X c #B4BCE0",
"6X c #D8B9C5",
"7X c #C5BAC9",
"8X c #ABC6DC",
"9X c #BEC5D2",
"0X c #B4C4DD",
"qX c #BAC8DA",
"wX c #B8CCD6",
"eX c #ACC4E6",
"rX c #B3C4E3",
"tX c #BCC7E2",
"yX c #B4CBE4",
"uX c #BCCBE4",
"iX c #B8C9EA",
"pX c #BCD5E9",
"aX c #B4CFF1",
"sX c #C5CBD8",
"dX c #C9D6DE",
"fX c #D6D7DA",
"gX c #D3CBCE",
"hX c #EED5D1",
"jX c #C3CDE5",
"kX c #C3D3EC",
"lX c #C9D6E9",
"zX c #D2DCEB",
"xX c #D9DAE8",
"cX c #C5D6F4",
"vX c #D5D4F3",
"bX c #E8DFE6",
"nX c #D5E5E8",
"mX c #CDE5F7",
"MX c #DAE8F6",
"NX c #D6F1F5",
"BX c #FAFBEB",
"VX c #E9F4F8",
"CX c #FDFDFC",
"ZX c #F8F8F6",
"AX c #E6E8EE",
"SX c #DEE6DB",
/* pixels */
"@ # =.=.o + # =.*.>.>.;.;.>.*.=.>.,.=.=.@ @ .   O *.,.,.. . . ;.>.>.=.=.:.=.*.=.;.-.X o *.*.*.*.*.*.",
"@ =.=.# @ @ @ @ *.=.=.*.=.=.=.;.=.@ =.,.-.G b <.<.1.<.l 1.@ @ -.;.=.*.=.>.=.*.=.=.;.o . O *.*.*.*.*.",
"@ -.-.o # ,.@ @ X =.=.*.=.o *.*.@ ^.V.H 5.u.o.%Xj.&X.XO.XX4.H 1.*.*.# =.;.;.=.*.*.;.@   . O o *.=.*.",
"@ :.:.@ # ,.@ =.*.>.:.X =.=.o o ^.H  .s.i.q.o.$Xf.f..X` 0.9.p.R H ,.:.:.=.=.*.. . @ o @ *.-.;.;.*.*.",
"*.-.:.@ @ =.-.-.O :.>.*.;.,.O < 6.a.Q y.u.9._ .X.Xf.$X` u.u.8.Q w.4.: ;.@ *.=.@ o *.X X =.=.;.;.=.*.",
"@ *.=.X @ @ ;.=.  *.;.;.>.:.k +.p._ E p.9.s.%.#Xf..Xg...d.q.y.E 2.p./ C X O @ @ *.X . . *.-.;.>.*.o ",
"@ @ @ X @ =.# # *.o *.=.=.H | Q p.%.R 3.s.7.$.#XXX.X.X&.u.9.e.{ 8.e.~ ^ H @ -.*.*.-.*.=.:.:.=.o *.*.",
"O @ @ @ @ !.8 B.F F !.F c | R ` y.8.( 9.t.u.o.#Xf.f.f.' s.w.8.[ 8.p./ X.Q l !.F 7 B.B.< ^.>.=.X O O ",
"=.@ X O !. X.X&Xo.e.$X7.u  .Q ( i._ Q u.p.r.%.f.f.f.#X) p.0.3.W 8.y.Q ( ~ &.$Xs.$.j.d.^ @.!.>.# O O ",
"X *.*.1.h.d..Xj.o.e.$X7.u ..Q ..s.8./ 9.w.e.o.&Xf.f..XX.u.u.7.! 2.u.{ ..~ %.#X7.X.#Xd./ i.@.!.=.*.O ",
"@ *.F H g.q..X#Xo.e.$X7.u ..E ..i.%.W u.s.9.) $Xf.f..X) u.i.7.~ 7.u.{ Q R 8.$Xy.o.&Xs.Q w.w.c /.*.O ",
"  !.9.` r.q.d.j._ 7.$X7.u ..! ( u.&.) 3.9. X_ &Xf.f..Xo.p.3.r.Q 7.u.Q ) R %.j.i.$.j.s.Q q.0.{ H 1.*.",
"!.XXp.W r.9.XXj.%.e.$X7.u ..W ( p.O.) i.p.t.] .X#X.X#X` i.t.i.b 8.0.W ( E %.j.y._ #Xd.R u.&.E p.<.S.",
"7 g.8.E y.e..X#Xo.e.$X7.u ..W ( w.2.R e.6.G N B.F B.F < 1.5.t./ 7.u.! W E 8.$Xu.' &XXX! 0.8.Q 3.u.& ",
"k 0.r.~ p.e.d.%Xo.e.$X7.u ..W ( u.C.B 7 N Z p x v r d h c N k Z 4. X{ W E &.j.y.) #Xu.) t.8.E 9.9.< ",
"7 t.7.E 0.0.g.$Xo.e.$X7.u ..W ..6.M c J d Y i f L a i i L T v j l 4...( E %.$Xu.X.j.d.R u.e.E t.0.2 ",
"D r.t.R y.8..X.X&.8.$Xr.u '  .1 V i g U J T d i f d f K i g I L d C D  .) 2.$Xu.' %Xs.E 9.e.! e.y.< ",
"D u.8.R t.7.f.j.O.q.j.5.s A 7 C 0 K s L g i T p L a Y f U J i f K Y k D } %.#X9.O.j.g.W i.e.W e.7.< ",
"D i.2./ 7.0.f.$Xo.a.&Xu.c 1 B Z c Z m l Z m c V l Z Z m c Z m Z c c v 3 1 5.$Xi._ $Xs.W t.e.~ 7.y.< ",
"7 t.8.{ u.2.%.O.E ( %.| c M m l V N m m B B j j m z z j j z m l B B B V m n &.) E %.o.Y r.r.E e.y.< ",
"D t.8.~ r...L r I p s e K f U s d T g j J s } |.6X6XC.K U S v g i d T T f p x d I u d T o.2.! t.y.< ",
"D d.q.K $.( L U K a d U a i J I J T j m p @.7XMXNXVXnX7X+.d B m i Y J u d U i U i p Y T ( X.E u.e.< ",
"N 0.O.b H X.P p f J U i U d J d s c N g @.xXVX7XoXoX7XMXgXH r N v g d U f U J f T U e ~ X.H b 2.9.< ",
"F a.X.F <  .T i h L I i U i a f f M S u {.NX{.! |.|.+.7XNX+Xp c c J L I i L T d d i s P H = H ) 7.< ",
"N ..` $.F < d r I I v v I I I I S 1 g C.dXgX{ *XVXNX@X .gXfX+.r 9 r I v v v I I I e Y m < H $.) $.& ",
"3 E ` $.' G x.4 4 4 4 2 4 4 4 4 > 1 d T { w C.mXdXlXmX+.Y Q ! q N.N.4 2 6 4 2 4 x.4 4 2 H ! o.^ A , ",
"% 2 ! ^ $.' c V B B B B m m B B m 1 d V.}.@.@.jXuXiX6X .C.oX[ e 7 B M B B B B M j B m b o.` ( A & , ",
", k.3 } X.` L Y f f f f f T f f f N d H qXuXH #.1X7X#.(.aX2X[ v k f g U g f T a T d d L o.Q E * * , ",
"v./., 1 Q ..Y U i I J J J J i J v c l 0 oXaXjXC. .H C.yXaX(.s C v I J K i i i J Y L i Y | [ 2 ; '.x.",
"G.MX_.5 3 [ P s a i a a a f i a a U B v v oXaXyX1XyXaXrX}.K v m g d K a f K a a i s s ~ } & ; [.MXn.",
"7 nXpX'.> 3 l M M M M M N M M M M M F 2 e u (.7XjXjX{.C.d r 2 D N B M M B M C M C m M k 2 : `.nXsX> ",
"x.[.fXzX_.5 $ $ - - $ - - - - - , $ % , , 3 & 2 x.z.N.& & * % , - , % $ - $ $ - $ - - , > >XMXgX`.z.",
"n.zX{.fXfXG.; > : * = 5 * 2 = * * : * * : * : : = = , : : * = = * 2 = = 2 > 2 = = = < > ].nXwXOXkX; ",
"c.xXZX{.fXjX).).m.).G.F.G.G.F.F.F.F.F.F.F.F.F.G.A.F.F.F.F.F.F.F.m.m.M.G.M.H.m.M.m.F.b.H.lXgX{.CXpX; ",
"x.MXCXZX{.>X1X8XeXeX8X8X0XeXeX8X0XrX0X0XrX0X8X0XiXrXeXyXeXrXrXrXeXyXrXkXiXyXyXiXiXiXiXyX[.OXCXCXlX; ",
"c.zXCXZXZX>X)._._././.`.!.~.'.).~._._.)._._.).A.~.`.~.`.`./.`.6 9XxXAXbXSXSXbXAXbXnX1X, 2XCXVXCXkX; ",
"c.MXZXZXCXjX,XwXrX5XrXyXF.J.Q.Q.Y.L.Y.Y.Y.Y.Y.Q.z.,XuX8X8XyXrXG.8 6 n.F 8 8 6 8 6 4 8 A.xXCXVXCXjX; ",
"c.lXZXZXZXtX0XjXsXtXiXkXv.J.W.T.P.P.T.I.I.P.I.I.x.1XsXqXuX0XsXVX{.2X2X{.2X2X2X{.2X{.sXMXjXCXZXBXkX; ",
"c.xXCXZXZXiX5X0X0XyX8XdXv.J.W.Y.R.R.T.T.R.R.T.I.z.rXtX0XuXpXqXAX*X X@X*XBXCXCX*X XXX*XAXsXCXZXZXkX; ",
"c.vXCXZXCXtX,XuXtXiXtXjXb.J.U.Y.I.R.Y.T.T.T.Y.I.z.rXuXiXyXrX9XAX` @X|.X.BXCXAX_ O.hXZXnXjXCXZXCXjX; ",
"v.lXVXZXCX0X8XuXqXiXrXsXM.J.P.R.Y.Y.R.R.I.R.T.I.z.1XjXjXtXrXsXxX! |.#.oXhX@XhX[  XBXNXcXkXBXCXVXuXx.",
"A.lXsXZXCXjX4XqXqXiXyXwXv.J.W.T.T.T.R.T.T.R.T.Y.c.,X1XuXrXyXqXsXs +.+XAX+Xu OX XJ #.*XsXjXZXVX0XlX6 ",
"b.AXlXjXVX9XrX0X0XeXrXpXb.J.W.I.T.T.T.T.T.T.T.I.l.0XtX0XeXyX0XxX6X6XnXfXvXoXgXgXOXoXhXlXkXZX7XmXMXn.",
"b.lXnXsXlX0XrXlXlXkXkXlXM.D.R.T.P.P.I.T.P.P.I.I.x.rXkXpXcXkXjXMXfXZ.6X+XgXZ.hX+XgXC.AXlX1XwXxXxXlX; ",
"~.>XzXnXdX4XM.S.A.A.A.G.> D.3XE.K.K.E.E.K.K.K.K.; A.b.F.F.A.A.).)._.)._._._.).'.)._.).'.eXfXnXpX[._.",
"-.~.>XzXnXrX=X'.'.'._.'.n.=X3X3X<X:X<X-X:X<X:X:Xx.'.'.'.'._.'.'.'._.].].)._.'.'.].'.=X'.qXMXcX[.`.O ",
"@ @ ~.>XzX,XaXjXpXcXlXcXb.'.0X0XeXeXeXeXrXeXrX4Xx.yXkXkXcXkXkXaXlXjXpXlXpXvXjXpXlXpXlX0XwXvX>X).o O ",
"@   . A.>XiX<X0XeX<X1XyXv.<XMXxXzXzXzXzXzXlXnXlXn.<X,X,X0X1X,X,X4X1X4X8XeX4X1X5X4X5X,X<XaX]./.# @ . ",
"@ @ @ @ !.'.4X;X-X-X;X:Xc.v.~.~.~.~.~.A.~.~.A.~.z.>X:X;X-X;X-X;X-X-X;X-X-X;X;X-X;X;X;X:XH.`.=.@ X X ",
"@ @ =.O @ A.k.x.l.l.l.c., [.sXsX9X9X9X9X9X9X9X9X; z.; x.x.l.z.x.z.z.z.z.z.z.z.z.x.l.c.k.).-.=.X X X "
};
