/* XPM */
static char *_c7d426efbdb4bd28d3178ca14d17d46wDDOvcZBXGMIur2l[] = {
/* columns rows colors chars-per-pixel */
"50 50 256 2 ",
"   c #3D5574",
".  c #3B526B",
"X  c #6D505C",
"o  c #454C6C",
"O  c #495B6B",
"+  c #5C566D",
"@  c #58596C",
"#  c #435273",
"$  c #4D5979",
"%  c #595A73",
"&  c #585876",
"*  c #504B6F",
"=  c #655A69",
"-  c #6A5867",
";  c #765B65",
":  c #665876",
">  c #6E4E68",
",  c #5A6477",
"<  c #516272",
"1  c #656777",
"2  c #796B77",
"3  c #736F76",
"4  c #77625F",
"5  c #CC363D",
"6  c #B8403F",
"7  c #D04B3C",
"8  c #BD3C49",
"9  c #BC3D57",
"0  c #BF2645",
"q  c #B13F63",
"w  c #C53648",
"e  c #CC3D4C",
"r  c #C73B47",
"t  c #D33D4D",
"y  c #D4394B",
"u  c #CB3B53",
"i  c #C83B56",
"p  c #D23D53",
"a  c #D73753",
"s  c #CC3C63",
"d  c #984A5A",
"f  c #88575A",
"g  c #97575A",
"h  c #8C4F5F",
"j  c #BA4447",
"k  c #A64958",
"l  c #B84558",
"z  c #B05656",
"x  c #B8685E",
"c  c #974D65",
"v  c #8A5365",
"b  c #885667",
"n  c #955168",
"m  c #975366",
"M  c #8C516E",
"N  c #A64967",
"B  c #B64862",
"V  c #B95663",
"C  c #B05A6A",
"Z  c #836469",
"A  c #886A78",
"S  c #947671",
"D  c #A96569",
"F  c #B46C6D",
"G  c #C5424D",
"H  c #CA434C",
"J  c #CC4548",
"K  c #D4454B",
"L  c #C24354",
"P  c #CB4152",
"I  c #C84758",
"U  c #D34253",
"Y  c #D44955",
"T  c #CB5A54",
"R  c #CB5857",
"E  c #D55B55",
"W  c #D45A5B",
"Q  c #D65859",
"!  c #CF574E",
"~  c #E95A5D",
"^  c #CA6357",
"/  c #D5645E",
"(  c #D9635C",
")  c #D76959",
"_  c #D8745B",
"`  c #D46C53",
"'  c #E3655A",
"]  c #E27A5D",
"[  c #C95565",
"{  c #D75963",
"}  c #C74A64",
"|  c #E75A62",
" . c #CA6765",
".. c #D46564",
"X. c #DA6966",
"o. c #DD7563",
"O. c #D97966",
"+. c #C96975",
"@. c #C67578",
"#. c #DB7873",
"$. c #E46865",
"%. c #E47968",
"&. c #E9796E",
"*. c #B18972",
"=. c #9E837C",
"-. c #DC8469",
";. c #DB956C",
":. c #C98478",
">. c #D68B79",
",. c #CB9071",
"<. c #E58C6E",
"1. c #EB8D6D",
"2. c #E78569",
"3. c #E4936D",
"4. c #EB926B",
"5. c #E59466",
"6. c #F3966A",
"7. c #EA8C73",
"8. c #E78977",
"9. c #F78A74",
"0. c #EC9473",
"q. c #EC9B75",
"w. c #E89678",
"e. c #F29473",
"r. c #F69878",
"t. c #F8886D",
"y. c #EBA47B",
"u. c #F7A978",
"i. c #F7B77C",
"p. c #EDAC76",
"a. c #D5A67C",
"s. c #FDC37D",
"d. c #F9C77C",
"f. c #4E5B82",
"g. c #4E6284",
"h. c #536285",
"j. c #55658A",
"k. c #596989",
"l. c #5A6A94",
"z. c #6C7799",
"x. c #747B9C",
"c. c #676E8D",
"v. c #747EA6",
"b. c #685982",
"n. c #8B7B84",
"m. c #9A6E85",
"M. c #B07085",
"N. c #CD7489",
"B. c #E57196",
"V. c #7A8499",
"C. c #73848E",
"Z. c #5788BE",
"A. c #7584A5",
"S. c #7985A7",
"D. c #748FAD",
"F. c #548AC4",
"G. c #7BAADE",
"H. c #61A3DF",
"J. c #5EA8EC",
"K. c #5DA5E7",
"L. c #5DB0F4",
"P. c #62A5E4",
"I. c #63A7E9",
"U. c #63A9E9",
"Y. c #7BABE0",
"T. c #64B0F4",
"R. c #60A1DB",
"E. c #89868A",
"W. c #848898",
"Q. c #989899",
"!. c #919197",
"~. c #BA848C",
"^. c #858CA6",
"/. c #8794A8",
"(. c #9699A5",
"). c #8A94B2",
"_. c #8999B6",
"`. c #979AB7",
"'. c #8D8BB1",
"]. c #AE95A9",
"[. c #97A5B3",
"{. c #A5A3A7",
"}. c #B8B9BA",
"|. c #AFADB5",
" X c #D18C92",
".X c #ED9786",
"XX c #FBB885",
"oX c #F0AB8C",
"OX c #CF90A5",
"+X c #C6B9B9",
"@X c #D4AAAE",
"#X c #E3AD9E",
"$X c #FDC584",
"%X c #FECA8A",
"&X c #FCC686",
"*X c #EFCA86",
"=X c #FDCCB6",
"-X c #DFC7AF",
";X c #8A99C2",
":X c #99AED6",
">X c #97ADD6",
",X c #9CB1D7",
"<X c #9BA9C4",
"1X c #B7B6C7",
"2X c #ADBEDB",
"3X c #A4B6D7",
"4X c #B5BCD6",
"5X c #AAAEC7",
"6X c #91BAEB",
"7X c #A6BAE4",
"8X c #B4BCE0",
"9X c #D8B9C5",
"0X c #C5BAC9",
"qX c #ABC6DC",
"wX c #B4C4DD",
"eX c #BBC4DB",
"rX c #BACAD9",
"tX c #B8C7CF",
"yX c #ACC4E4",
"uX c #ACC4E9",
"iX c #B3C4E3",
"pX c #BCC7E2",
"aX c #B4CBE4",
"sX c #BCCBE4",
"dX c #B8C9EA",
"fX c #BBD5E9",
"gX c #B4CFF1",
"hX c #C2C5D2",
"jX c #C5CCD9",
"kX c #C9D6DE",
"lX c #D6D7DA",
"zX c #D2CBCE",
"xX c #EED5D1",
"cX c #C3CDE5",
"vX c #C3D3EC",
"bX c #C9D6E9",
"nX c #D1DCEB",
"mX c #D9DAE8",
"MX c #C5D6F4",
"NX c #D5D4F3",
"BX c #E8DEE6",
"VX c #D5E5E8",
"CX c #CDE5F7",
"ZX c #DAE8F6",
"AX c #D6F1F5",
"SX c #E8E6E8",
"DX c #FAFCEC",
"FX c #E8EBF5",
"GX c #E8F3F7",
"HX c #FCFCF5",
"JX c #FCF6FC",
"KX c #F5FEFD",
"LX c #FDFEFE",
"PX c #F4F7F6",
"IX c #EFF0F5",
"UX c #DEE6DB",
/* pixels */
"LXLXLXLXLXLXLXLXLXLXLXLXHXLXKXJXLXDXKXLXLXtXeX1X1XtXtXtXzXKXLXLXKXJXLXHXLXLXLXLXKXLXLXLXLXLXLXLXLXLX",
"LXLXLXLXLXLXLXLXHXLXLXJXLXPXHXLXLXLXmX{.{.S D *.*.*.*.g =.{.].GXLXLXLXLXLXLXLXLXLXLXLXLXLXLXLXLXLXLX",
"LXLXLXLXLXLXLXLXHXKXKXLXLXLXLXJXPXQ.M.F >.w.O.%Xd.*XXX%.y.:.F =.{.LXDXLXLXHXHXKXLXLXLXLXLXLXLXLXLXLX",
"LXLXLXLXLXLXLXLXLXLXLXHXKXLXJXnXQ.F  ..X6.5.o.XXi.oXXX` u.0.r.z F {.FXKXHXLXLXJXLXLXLXLXLXLXLXLXLXLX",
"LXLXLXLXLXLXLXLXLXJXLXLXHXLX{.- ,.t.Q 0.q.3.o.XXi.XX%X/ 3.q.7.W 6.:.@ 5XLXPXLXLXLXLXKXLXKXLXLXLXLXLX",
"LXLXLXHXLXLXJXLXLXKXLXLXLX{.f +.u._ R q.w.q.o.&Xi.XXp.o.r.4.3.R 2.r. .b 1XLXPXKXKXLXLXLXLXJXLXLXLXLX",
"LXLXLXLXLXSXSXSXSXIXBXIX{.F | ( e.%.T w.y.3.$.$XoXXXXX$.w.y.7.{ <.7.! ~ D }.IXSXSXSXSXSXPXLXPXLXLXLX",
"LXLXLXLXSXE.C.S 2 A E.A k { T ) q.%...3.t.w.o.$Xi.i.s.' 3.6.2.[ 2.r.^ X.W g E.A A n.n.= Q.JXLXLXLXLX",
"LXLXHXGXC.y.i.*X%.7.%X1.w ..R / q._ W w.r.w.%.i.i.i.$X( q.4.5.Q <.3.W ( E %.%Xw.$.d.u.$.@.!.LXDXLXHX",
"HXKXKXA .Xu.XX&X_ 7.%X<.w ..W ..q.2.^ 0.6.1.o.*Xi.i.XXX.w.w.<.Q 2.q.{ ..! %.$X3.o.%Xq.T r.F n.JXLXLX",
"KXGXA x p.5.XXs._ 7.%X<.w ..E ..r.%.W q.y.w.X.&Xi.i.XX) q.e.3.I -.w.[ / T 2.%X4...&Xu.W 6.4.k !.LXKX",
"SXE.w.) 8.5.u.$Xo.7.%X<.w ..Q / q.&.) ,.;.9.) *Xi.i.&XX.r.;.q.W <.r.W ( R %.$Xe.o.d.y.W 5.4.W F E.KX",
"W.oXu.! 8.0.oXs.o.7.&X<.w ..E / e.-.W e.9.9.] $X*XXXXX` e.t.e.z 2.4.W ( T #.s.0.' $Xu.R 0.2.[ r.*.n.",
"4 p.2.R 7.7.XX$X%.7.%X<.w ..E ( 6.-.T 3.,.S b n.A m.S - =.>.9.^ <.q.Q E ! 2.%Xq._ &X.XE 4.7.W 5.r.X ",
"Z 4.8.! r.<.u.&Xo.7.%X<.w ..W ( q.N.n A b N G j l 9 i s k f f N :..XW ) R &.$X3.X.$Xy.) t.2.R w.7.- ",
"2 t.8.R 1.6.p.%Xo.<.%X<.w ..E ..*.v k L u I e p J e e P H U l c g :.{ / R &.$Xq.X.s.u.T w.7.R 9.3.: ",
"Z 0.t.T 0.2.XX$X&.1.%X8.w ] V Z m p a P G p i P t w p H e p L J i M m x W -.%Xq.) $Xy.W 3.7.W 7.0.= ",
"Z w.2.T 9.1.i.i.O.5.d.8.u V Z M 5 K K r K P U y H p P U U G e p J I f S } %.%X3.O.d.q.E e.<.R 1.3.= ",
"Z e.<.^ <.1.XX&XO.t.*Xw.9 ; M N d N c g N c k c f N N c k N c N k k q ; ; >.%Xe. .%Xp.E e.7.R 3.1.- ",
"2 9.2.[ w.-.%.O.R ( %.Q k b m g N M n k c n d d c c h d d h c g v c n c n x &./ W 2...R 7.8.Y 8.0.= ",
"Z e.2.! 8./ J 8 l r a 8 G p u y u Y a k j t }  X9X9XN.u P B B y p u P U p r 8 u P 6 u I X.2.Q 9.0.- ",
"Z r.5.Y $.( H I J t i u t e G L G P d c r @.hXZXAXGXZX}.+.i n n r U L r e P P L e e P Y ) X.! w.0.- ",
"b 4._ C F X.Y r u J P e U e G i y k b u N.mXFX0XOXOX0XAXlXC 9 b B a i I p P J p U H 8 ! X.D z <.1.= ",
"2 t.X.A =  .Y u p H L r P u y t U v B r }.AX|.Q OX>.+.9XAX@XG k d J J P e r U u i p y K F = D ..<.= ",
"v X.) ' A , I l L L L i l L l L B ; a N.lXzX{ -XAXAX#X .lXzX+.9 4 } i l l l L l l 8 L c = D $.) $.X ",
"> ! ` X.| D , < , , , , , , 1 , h.; i Y { 7 N.CXlXnXCX+.H { Q j b.: , : 1 , : , h.1 , 1 D ( X.' V * ",
". : { | $.$.k m n n n n c m n n c ; i M.OX+.+.rXiXdX9X .M.OXV i 2 M v n v m n m d c n B %.` ) V X . ",
"* $ X [ X.` J I p p p p p p p p P v P C aXaX~.#.4X0X#.~.MX1XR l f p a P a a H p U I r K o.Q I + @ * ",
"z.Q.< ; W / I P r L G L G G i r L k g 5  XgXpXN.+.F N.wXgX~.y M l r L G e G J G u J e I | [ : $ `.k.",
"V.CX).O > [ K a t e t t p t H t K L m B l OXgXaX1XaXgXdX~.p l c a p H t t u t e y t K ! } > $ [.ZXc.",
"c.BXfX_.: - h f v v v v v v v v v M A - 6 i ~.0XdXbX|.N.I i : ; b v v v n v v n M n h ; % , ].VXjX& ",
"k.(.lXnX/.O # # # #   # # # # # o   o O * > X : k.h.b.X X *   $   *   # #   # #   # * o , `.CXzX(.h.",
"l.nX}.lXlXA.$ & % = @ @ + + % : @ % % + + % @ @ @ @ * % + + + @ @ + % @ % : + @ % @ = & ).ZXhX+XvX$ ",
"c.NXHX|.mXcX^.V.S.v.S.D.S.S.A.A.A.A.S.A.A.A.A.A.V.A.A.A.A.S.A.S.v.^.v.v.v.D.v.v.v.A.x.D.vXzX}.HXvX$ ",
"j.ZXKXPX}.<X4XtXuXiXqXqXaXiXyX2XwXrXiXwXwXwXwXqXdXiXuXaXiXyXdXaXuXdXaXvXdXiXaXgXdXuXdXuX[.+XHXLXvX$ ",
"l.nXLXJXIX<X/._.(./.!.Q.E.S././.^.^.^.^.^.S././.W.(.W.(./.!.(.1 tXmXSXBXUXUXBXSXBXSXtX* 1XLXIXLXvX$ ",
"l.ZXDXJXLXcX3XtXpXiXiXaXv.F.R.R.H.H.P.H.P.P.P.R.g.2XsXqXqXsXaXS.3 1 c.2 3 3 1 3 c., 3 S.nXLXKXLXcX$ ",
"l.nXDXJXLXeXwXcXjXdXaXbXz.F.T.I.J.J.I.J.K.J.J.K.j.4XcXrXsXwXhXIX|.1X1X|.<X1X5X}.}.|.0XZXsXLXPXDXvX$ ",
"l.NXHXJXIXsXiXwXwXyXqXjXz.F.T.P.I.U.U.I.U.U.I.K.j.iXsXwXaXsXrXFX=X.X#X=XDXLXLX=X.XoX=XSXjXLXPXDXcX$ ",
"l.mXLXPXLXpX2XsXpXdXpXcXx.F.L.P.U.I.K.P.U.U.I.H.g.iXeXsXaXiXrXSX` #X XX.DXLXSX_ O.xXDXCXjXHXKXJXsX$ ",
"z.bXFXHXLXeX2XsXhXdXiXkXx.F.L.K.U.I.P.U.K.P.U.K.h.4XpXcXiXiXjXmXQ  X#.OXxX#XxX[ .XPXKXMXfXDXKXGXsXk.",
"V.nXeXPXHXcX7XrXeXdXaXrXz.F.T.K.I.I.U.I.U.U.I.K.l.2XeXsXiXaXjXjXy +.@XSX@Xw +X.XG O.-XrXcXHXIXwXnX1 ",
"x.FXnXcXGXrXyXwXwXyXwXfXx.F.T.K.I.I.I.I.I.I.I.P.g.wXsXwXiXaXrXnX9X9XVXlXNXOXzXzX+XOXxXbXvXJX0XCXZXc.",
"z.bXVXjXbXwXrXMXMXvXvXbXv.Z.U.I.J.K.K.U.K.J.J.K.k.aXvXfXMXvXsXZXlXB.9X@XzXB.xX@XzXB.SXfXeXrXmXmXvX< ",
"W.[.CXVXcX7XS.C.V.V.V.D.$ Z.6XY.G.G.G.G.G.G.G.G.$ x.x.S.A.V.V.^.'.D.(./././.^.)./.).^._.yXlXVXfX`./.",
"PXW.<XmXVXiX;X)._.)./._.c.;X6X>X3X:X3X:X<X3X3X,Xh._.).).'.)._.).)./.).(.^.).)._.'.'._.;XwXVXMX[.(.KX",
"LXGXW.<XNXqXgXvXfXMXbXMXx.`.aXiXuXuXuXuXuXuXyX7Xk.sXMXvXbXMXvXfXvXbXfXvXfXNXcXfXbXfXbXtXrXNX<X^.LXLX",
"LXLXPXW.<X8X3XtXyX3X2XaXc.3XZXnXnXnXnXnXnXnXVXbXc.3X3XqXwX3X2X2X7X4X7X2XyX7XwX8X3XiX2X,XgX_.!.LXLXLX",
"LXLXLXPXE._.7X>X:X:X>X,Xl.z.W.W.W.W.W.W.V.W.V.W.h.;X3X>X:X>X,X>X:X:X:X:X:X:X:X:X>X>X>X:X).(.LXLXLXLX",
"LXJXLXLXGXV.f.j.g.g.g.l.O [.jXhXhXeXhXhXhXhXhXtX& h.h.j.j.f.j.j.h.h.h.h.h.h.h.h.j.g.l.f.S.KXLXLXLXLX"
};
