/* XPM */
static char *_c110330956b4aa8b015c696a8d703e4Lz7pwkYOK6IQaDs8[] = {
/* columns rows colors chars-per-pixel */
"50 50 6 1 ",
"  c #237D1F",
". c #288224",
"X c #2D8729",
"o c #1D7819",
"O c #348F30",
"+ c #156F11",
/* pixels */
" ...o+ ..OOXOO.XOOXX o+++.OO+++XOOX.OX XXXoo....  ",
" ... o   XX....XX .OX oooXOOoo XX...OX..XXo+oo ...",
" .X .O   ...  . oo.OOX  .OX...X... .XXX..Xo++o .XX",
" OOo O.. OOo.Xo ...XOOo++XXXXXX.XOOO.XX++   .XX.. ",
" XOo XXXoXO.XO+oO   OO   .XX..XXXXXX  .oo oo.XXO. ",
"...oo OX+.XXOO+oOoo .. XOo.X  .XX.. ooo..o++.XXOXo",
"o    .  o .X.  .X ooo.O. +++...XX. o..X .X.XOO.oo ",
"oooo .     X. OX . o .X. +++o .XX.  XXXo XXOOOXooo",
". ooo OO.o .XXOXoX.oXXoXO+o.++... XOXOXo++.X.OO.o+",
" ..X.o.. +oX. .... o   oo.XO .Xoo XX .X...OX.OOX o",
"o.XX.o  o++X o .X   o .o+XOOXX.oo ..  .XXXOX OOX o",
"+o. o+XX ++X oXX.oo .X. o oo  o.X   .. ..    ..  o",
"+o ...OOXXXX oXXX o+o  .  o+o .. o   o+  ...X. o  ",
"  .XOOOOOOOX. ... o+oo .. ooo X.o+ Xo++o ..XX.oo .",
" .XX + .OX o.OoooooXOX   o .. o.. OOOOX.o+++.X.+ X",
"X. . oo XXX.. o   .OOX o   o.. ..oXO.XO.  o  XXo  ",
"O + .Xoo XOOo+.XXXXOOX.  .o+.XX. +oo+ O..XOX XX. o",
" ..     ....oo.XOXXO..O.o ooooooo  .XXXXXO... o XO",
"..XX.   o..   .XO..XooX.    o  +o.  ...XX.... o .X",
"OXXOO  o+ X.XXXXX++ o++ .  . .XooX ++o X +.XX...o+",
"X oOOO ooo oXOXX.XX.+++oo oo.. XX   Xo+.X.o OOX. o",
" oo.XX  . oo.OX. OOX++  o ooX.oOOo .O + XXooOOXX..",
"+oo ooXXXX. ++X. OO XOOO.X. ..XXXoo  ..oooo  o XXX",
"o  o ..    O.o ++OO XOOOX.XOXXX. ooo.oo.XX.   ..  ",
"   o.Ooo o OX.o++ X...XOO XOXXX  .oo.o+XOO.  .. o+",
" ooOX ++OX oooo.XXXXO.+XOooo oo .X oooo. +..++++oo",
"+ .XX oo.  ... ..OX.. +.Xoo.   ..  .. o oo..o++ooo",
"+.OX. OX+o XOO.  XX ooo  + O..XX.+.OO.o+oX.    ooo",
"XXX .XOO.  ...o X..X ooooooooo..... +o++o XOX. XXX",
"OOXo.OOO. oo..o X..X  .  . +o.O...X.+++oo XXXXXXXX",
"OX + XOO ooo.X   X...XOX.O.+ OOO oXO o+X. o XOO.XX",
".XOoo . o.XX oXXX+o  ooo X o .X.. ..   ooo...XX.XO",
" XO  . o+.OX oXXX++ooooo . o..         o++.X.. .XO",
"XXX.XOX +.X+ XX.ooo+o  ...  OO ++oooooo o+ XX++...",
".. XOOX o  o .oo oooo XXXo.OXo++o.  . ooo++oXX. .X",
".ooXOO. o   ..oo   .  OXX+XO +++oX..X.oooooo.OO .X",
" o+o.O oo oo.O.ooXOOXOX....X. o   o O.oXXXOO.XX+++",
"X oo .     o.O.  XOOOX. o ..X.o...  X. OOXXX.XXo++",
"OX.oo .X... .X..XXXOOX ooo.XOXoXOX. XX.OXXoo.XX.o+",
"OOX.ooo.OO. XO...XX.OO+.OXXX oo.. .XOX    . oo.OX ",
".XX    .OX.oXO.. XX.OOoXO...oo XX ...o+   oo+o OX.",
"+ X .OXXO. oOOX.  .XOOXX.o .ooXOXo  +++.X.++oo XXX",
"X.. .XX + .X.. XO  .XXo.X .X..X   o+. o. oo X ooo+",
"OX   . o+o.X o XO ooXXo X..X..XooX oXX. oo.XX o+o+",
"O.o o++++o. ++.X.oo+..  .XXX.XX  OOX...++.OOo++o  ",
"X o  oo XOO.   o+..  .X  .XX  XooXXX.. ++.X +o . o",
".oo... XOOO .X ++XX.  X.o XO  .oo..X. o++. o+ X.o+",
"o++.OO .OX +oX.. oo.o OX o.O  Xo+o ..o+  oooX... +",
"oo  .OOX. o+oooooo X  X.  OOX.Xoo.o+ oooo.   .. oo",
"o.Xo XOOo++oo++++ .O..X oXOOXXX  O++  o+oX. +.Xooo"
};
