/* XPM */
static char *_f6a8ebb7f6c48c79f674d878e59a0a6P0YVScQEZIxZH3dH[] = {
/* columns rows colors chars-per-pixel */
"50 50 66 1 ",
"  c #0F680A",
". c #10690B",
"X c #116A0C",
"o c #126B0D",
"O c #136C0E",
"+ c #146D0F",
"@ c #156E10",
"# c #166F11",
"$ c #177012",
"% c #177213",
"& c #187113",
"* c #1A7113",
"= c #197214",
"- c #1A7315",
"; c #1B7416",
": c #1B7617",
"> c #1C7517",
", c #1D7618",
"< c #1C7718",
"1 c #1F7618",
"2 c #1E7719",
"3 c #1D7819",
"4 c #1F781A",
"5 c #1E791A",
"6 c #1F7A1B",
"7 c #20791B",
"8 c #217A1C",
"9 c #207B1C",
"0 c #227B1D",
"q c #217C1D",
"w c #237C1E",
"e c #227D1E",
"r c #237E1F",
"t c #257C1E",
"y c #247D1F",
"u c #257E20",
"i c #267F21",
"p c #287F21",
"a c #278022",
"s c #288123",
"d c #298224",
"f c #2A8325",
"g c #2B8426",
"h c #2A8526",
"j c #2B8627",
"k c #2C8527",
"l c #2D8628",
"z c #2E8729",
"x c #2F882A",
"c c #2E892A",
"v c #30892B",
"b c #318A2C",
"n c #308B2C",
"m c #328B2D",
"M c #338C2E",
"N c #328D2E",
"B c #348D2F",
"V c #358E30",
"C c #348F30",
"Z c #368F31",
"A c #359031",
"S c #379032",
"D c #389133",
"F c #399234",
"G c #3A9335",
"H c #3C9537",
/* pixels */
"yudl2 udaZZbbZskZSkky4#o=0Fb++$gBBksBkssvk4>asssww",
"ysdu0y0yukdudsdxg7aDkw20;xDBw0wkkkygBksskk4&>7asss",
"wll4uS2w7glydwuw02dZbv04uDgddskdysyskvkysv7++>7ykk",
"wbB4uDudyBB2sg70udgsSF2&=lakxgxavDBBska$+77wskvksy",
"ulb00glx2vZyxZ$4Mu0wSB2w0avbduklsxkxwssw7y>4skxvky",
"uag47ybd#ylbZMo>Z420sddlb0au00dlvsyy>>77y7+&ykvSa7",
"00040usy07akda0ag00>2ubdy+#=asggvs7wssgaskskBMs7ww",
">7740d70w7aly0Flyay2adva7=Oow0alksy7kvx>7xkMDDg>:4",
"dw2>40bSd2ydklSl2xu4kd0lZ#;d##ass7vBvBv>+OskyDBs:%",
"4ykks4dsy#;ka0suudy4y0>24uZbyag247kk7akgkpDvsDDs66",
"7ulla2w02o#vy2udlu747ua7$dSBxka77wsyysskkkBkyBBz66",
"+0dy;#sxu##dy7lgs44uugd02424w00usywysa7syy07yvs7w6",
"#>yugdZSlkxl0>xvkw==20wuy0=#&0ddy7wyy&$ysassks77ww",
"wwslBbZvZZFdsydddu=&270guuu74ugd;$7sy$+>wwskks77wa",
"yalky&ydSky2kb7=>2wlblw0047yu07usyMHBBxs7&O;szs+ad",
"lauay=70kkldud$dy0sZBlu20u47dawda7kvsvBs7777ykk76a",
"Sy+7dl02ukMS2OglldlZFgs0wl2.uvdgy.77.yBsskBvykvy99",
"0uday40yyddd2;dlSlbvagSu24704222>yysvkkkvDs7ky>yxn",
"ddlddwy00uaw0ydlSuav2=gdu2yu>7y#>k07sskkksssf7>sgj",
"MglMZu40ouxdlldlg=.w4O#0gw0wykg2yk7&&>yky#yvksky:%",
"lwwZFv72202;lFvksvgs=##>4020la0lks7yv>.svy>sBDkkw4",
"02=adxuyaw24dbly0ZGd.o00>a2;da0BB77fvs&ykk77vBkkas",
"#2y4;0dlllaw#OdbwbMsgMHZaka0slglv>>yyyy777777yysgz",
"20u4uudww7yBd4y.#SZ0bBMZvulZlkxa7y>7s77skksyy7skww",
"w0y4uS0;0>wbMs>#$2lsaslSZ0lZldky7f&ys7+vBZswwsz7>$",
"y>2Mb0.$Flw2=;0agbvkDu$lM024002wkk7>>>>ss+ya&++&43",
"ossvd0w=yuusgdaysZkuk0Odl2;suu0dk7yfky77>wss>++>34",
"Ollldabv+2ylSbayulku>24uu+0Zsully&yBvs>&>vyysyy>>>",
"gvldgdMZau0ygu0ulasx224=2=00>7lassss&>++3>BBssykvx",
"Sbk>uZSZg0;0du42ggdkuudu0l0 2dMgssks+&.07yvvkkzMkk",
"Zlu=wlbZy2>0adduadsusdMvuDu$aBZvy7kv77>sss&7vSBykk",
"uvx220sw2uxk70glg==us;0;wl440dggk>kk7y7>7>ksyvvakB",
"ulZ0wsa>#uZduwalk$O;4>2>way4wdwwyu4ww4u4O$aldawuvB",
"kklslZl0$ag=0gxk4;0#2a4gaawwSDw#O44442w4;+7xg;$ays",
"dwulBSgu4ua>0u72w4;4;7xlg0aMg;.#;uwwuw444#+>ggwask",
"u24lMZa0>7w0dd4=uw0gw0Sgk$dGa##$wgauxs244042aFM0sk",
"d>#7dBy2204;dSd7=lSvxMlggwgguuw24w4wMg0sdlSMdgl=+&",
"k0;;7dyuyy04sbawwxSSZbdw;adaga>gga7wldwSMlxxagx;@+",
"Bxlw70alsawaklugbgaZBda>;4uxGl4dMxaalgwZxg44ulMs>$",
"Dvxw0>0uZZdudZdaalxdMM;yFgxk42waauagZv0y4swww;yZky",
"gdb7yu7dMva2lSuswlgsZZ4xSysg4=wgl4ada4#w4a0;#2wMgs",
"#4k0dbblBd04bFgkwwggMSyxa2wa40kZguw2;#odbwO+47wgvg",
"gllwall2=7skgy0gB0aaxbwaguaguuaa4w;=ww4gu440sw043&",
"Zd7wuau2o2dlu4ulG444gd2wggglglg>0luwlga4;2axxu;o>@",
"Fs4u4####4u4O#uka24=aawudgdgalxwwZbgaaa$+aZS4O$0a7",
"k04u4>>udZFg20w0#ud4wsgwwdxxwwg42kbldaa#$gg4O4ww7>",
"s22usgylFBbuax4.$ggg0yxu;0lSw4j;;adglw;#Odd;&agd7&",
"0o#dZS7sBku#;lsd04;g44Slw4dBu4b<#4wdg;#ww4;4laug7$",
"27u2gZblu0;;;242=0ylyyka4gMAggg42v$$w4444awa>gs943",
"2ug2ylMZ7$#>>###$0aMsaku6gAAxgx60M#$w72=4gwy&sk733"
};
