/* XPM */
static char *_1a596ffaa554f20b77d688835edb225mcoAG3R7P43USYYa[] = {
/* columns rows colors chars-per-pixel */
"50 50 16 1 ",
"  c black",
". c #282838",
"X c #384040",
"o c #784040",
"O c #486060",
"+ c #C03838",
"@ c #B87020",
"# c #F06848",
"$ c #F8B020",
"% c #D89070",
"& c #D8A078",
"* c #F8C090",
"= c #B0B0D0",
"- c #B8B0D0",
"; c #E8E8F8",
": c white",
/* pixels */
"::::::::::::::::::::::::::::::::::::::::::::::::::",
"::::::::::::::::::::::::::::::::::::::::::::::::::",
"::::::::::::::::::::::::::::::::::::::::::::::::::",
"::::::::::::::::::::::::::::::::::::::::::::::::::",
"::::::::::::::::::::::::::::::::::::::::::::::::::",
"::::::::::::::::::::::::::::::::::::::::::::::::::",
":::::::::::::::::XXXXXXXXXXXXXXXX:::::::::::::::::",
":::::::::::::::::XXXXXXXXXXXXXXXX:::::::::::::::::",
":::::::::::::::  OOOO$$$$$$$$OOOO  :::::::::::::::",
":::::::::::::::  OOOO$$$$$$$$OOOO  :::::::::::::::",
":::::::::::::::  OO@@$$$$$$$$@@OO  :::::::::::::::",
":::::::::::::::  OO@@$$$$$$$$@@OO  :::::::::::::::",
":::::::::::::  XXOO$$$$$$$$$$$$OOXX  :::::::::::::",
":::::::::::::  XXOO$$$$$$$$$$$$OOXX  :::::::::::::",
":::::::::::::  XXOO$$$$$$$$$$$$OOXX  :::::::::::::",
":::::::::::::  XXOO$$$$$$$$$$$$OOXX  :::::::::::::",
":::::::::::::  XX      $$$$$$@@XXXX  :::::::::::::",
":::::::::::::  XX      $$$$$$@@XXXX  :::::::::::::",
":::::::::::  **  XXOOOO  XX@@@@XXXX**  :::::::::::",
":::::::::::  **  XXOOOO  XX@@@@XXXX**  :::::::::::",
":::::::::::  %%  OO  OO  XXXX@@XX  %%  :::::::::::",
":::::::::::  %%  OO  OO  XXXX@@XX  %%  :::::::::::",
":::::::::::::    OO  XX@@@@@@@@..oo  :::::::::::::",
":::::::::::::    OO  XX@@@@@@@@..oo  :::::::::::::",
":::::::::::::  %%  **  ****  **%%%%  :::::::::::::",
":::::::::::::  %%  **  ****  **%%%%  :::::::::::::",
":::::::::::::::  %%%%  ****  %%%%oo:::::::::::::::",
":::::::::::::::  %%%%  ****  %%%%oo:::::::::::::::",
":::::::::::::  ++##oo%%%%%%%%oo##++  :::::::::::::",
":::::::::::::  ++##oo%%%%%%%%oo##++  :::::::::::::",
":::::::::::oo**&&##==OOOOOOOO==##&&**oo:::::::::::",
":::::::::::oo**&&##==OOOOOOOO==##&&**oo:::::::::::",
":::::::::::oo****XX    ;;OO;;++XX****oo:::::::::::",
":::::::::::oo****XX    ;;OO;;++XX****oo:::::::::::",
":::::::::::::oo    ++++    ++++    oo:::::::::::::",
":::::::::::::oo    ++++    ++++    oo:::::::::::::",
":::::::::::::::  OO    ====    OO  :::::::::::::::",
":::::::::::::::  OO    ====    OO  :::::::::::::::",
":::::::::::::::  XXXXOOOOXXOOXXXX  :::::::::::::::",
":::::::::::::::  XXXXOOOOXXOOXXXX  :::::::::::::::",
":::::::::::::::  ----  ::::  ----  :::::::::::::::",
":::::::::::::::  ----  ::::  ----  :::::::::::::::",
":::::::::::::::::    ::::::::    :::::::::::::::::",
":::::::::::::::::    ::::::::    :::::::::::::::::",
"::::::::::::::::::::::::::::::::::::::::::::::::::",
"::::::::::::::::::::::::::::::::::::::::::::::::::",
"::::::::::::::::::::::::::::::::::::::::::::::::::",
"::::::::::::::::::::::::::::::::::::::::::::::::::",
"::::::::::::::::::::::::::::::::::::::::::::::::::",
"::::::::::::::::::::::::::::::::::::::::::::::::::"
};
