/* XPM */
static char *_c7d977dad334831d603c605127bdd86jIK1yoACCVvvwY3G[] = {
/* columns rows colors chars-per-pixel */
"50 50 95 2 ",
"   c #247D1F",
".  c #257E20",
"X  c #2A8325",
"o  c #2C8527",
"O  c #1E7719",
"+  c #0F680A",
"@  c #267F21",
"#  c #298224",
"$  c #278022",
"%  c #368F31",
"&  c #358E30",
"*  c #318A2C",
"=  c #288123",
"-  c #384040",
";  c #30892B",
":  c #1D7618",
">  c #237C1E",
",  c #227B1D",
"<  c #217A1C",
"1  c #338C2E",
"2  c #2B8426",
"3  c #177012",
"4  c #1C7517",
"5  c #2D8628",
"6  c #1F781A",
"7  c #379032",
"8  c #20791B",
"9  c #2E8729",
"0  c #2F882A",
"q  c #156E10",
"w  c #1A7315",
"e  c #348D2F",
"r  c black",
"t  c #486060",
"y  c #F8B020",
"u  c #146F10",
"i  c #207B1C",
"p  c #217C1D",
"a  c #288324",
"s  c #2B8627",
"d  c #2D8829",
"f  c #1F7A1B",
"g  c #227D1E",
"h  c #1B7617",
"j  c #1E791A",
"k  c #2A8526",
"l  c #2E892A",
"z  c #166F11",
"x  c #B87020",
"c  c #146D0F",
"v  c #328B2D",
"b  c #237E1F",
"n  c #399234",
"m  c #1D7819",
"M  c #136C0E",
"N  c #1C7718",
"B  c #177213",
"V  c #389133",
"C  c #126B0D",
"Z  c #1B7416",
"A  c #187113",
"S  c #197214",
"D  c #F8C090",
"F  c #308B2C",
"G  c #D89070",
"H  c #328D2E",
"J  c #2C8728",
"K  c #348F30",
"L  c #258021",
"P  c #359031",
"I  c #389334",
"U  c #282838",
"Y  c #784040",
"T  c #10690B",
"R  c #116A0C",
"E  c #136E0F",
"W  c #278223",
"Q  c #318C2D",
"!  c #298425",
"~  c #369132",
"^  c #268122",
"/  c #247F20",
"(  c #C03838",
")  c #F06848",
"_  c #D8A078",
"`  c #B0B0D0",
"'  c #E8E8F8",
"]  c #2F8A2B",
"[  c #116C0D",
"{  c #157011",
"}  c #B8B0D0",
"|  c #287F21",
" . c #1F7618",
".. c #257C1E",
"X. c #1A7113",
/* pixels */
"  . X o O + @ # $ % & * * & = - - - - - - - - - - - - - - - - - - - - # & X = X ; o O : @ = = = > > ",
"  = # . ,   < > . o X @ X = # - - - - - - - - - - - - - - - - - - - - # 1 o # # 2 o O 3 4 < @ = $ = ",
"> 5 5 6 @ 7 6 > 8 2 5   X > . - - - - - - - - - - - - - - - - - - - - X 9 0 2   = 9 < q q w <   5 o ",
"> * e 6 . 7 . X   e e O r r r t t t t t y y y y y y y y y y t t t t t r r r @ 3 u i i p a s d d = > ",
"  9 1 < < 2 9 9 : * &   r r r t t t t t y y y y y y y y y y t t t t t r r r X , f g h j a k d l 2   ",
". $ X 6 8   ; X z   0 ; r r r t t x x x y y y y y y y y y y x x x t t r r r < <   8 c 3 . o * & $ < ",
"< , , 6 < . =   < < $ o r r r t t x x x y y y y y y y y y y x x x t t r r r 2 $ $ o $ o & v X < b g ",
"4 < 8 8 < X 8 , > 8 $ 5 r r r t t x x x y y y y y y y y y y x x x t t r r r 9 4 , 9 9 v n % X : h m ",
"# > O 4 6 < 1 7 X : r r - - - t t y y y y y y y y y y y y y y y y t t - - - r r z M X 2 @ % & = N B ",
"6   o o = 6 = = > z r r - - - t t y y y y y y y y y y y y y y y y t t - - - r r 2 $ % 0 # V % X i j ",
"8 @ 9 o $ O   < O C r r - - - t t y y y y y y y y y y y y y y y y t t - - - r r 2 5 % 2 . v 1 0 i j ",
"c 8 X   Z z = 0 . 3 r r - - - t t y y y y y y y y y y y y y y y y t t - - - r r @ >   8   9 = < p i ",
"z 4   @ X # % 7 5 o r r - - - t t y y y y y y y y y y y y y y y y t t - - - r r $ $ # # 2 = < O > > ",
"> > = 5 e * % ; & % r r - - - r r r r r r r y y y y y y y y x x x - - - - - r r , > $ o o = , 6   @ ",
"  $ 9 o   A   X V o r r - - - r r r r r r r y y y y y y y y x x x - - - - - r r 6 3 C Z = 0 @ c @ X ",
"5 $ . .   S 8 < o o r r - - - r r r r r r r y y y y y y y y x x x - - - - - r r , , 8 8 > o 5 6 , . ",
"7 > M 8 X 5 , r r r D D r r r - - t t t t t r r r - - - x x x x x - - - - - D D r r r 0 . 2 * @ p i ",
", @ # $ > 8 , r r r D D r r r - - t t t t t r r r - - - x x x x x - - - - - D D r r r 6 X . w . l F ",
"# # 9 = X ,   r r r G G r r r t t r r r t t r r r - - - - - x x x - - r r r G G r r r = 2 , : @ k s ",
"H k J H K L i r r r G G r r r t t r r r t t r r r - - - - - x x x - - r r r G G r r r * 2 = 2 . h B ",
"d b g P I l f r r r G G r r r t t r r r t t r r r - - - - - x x x - - r r r G G r r r $ & % 9 2 > 6 ",
"< : w $ X 0 @ > $ > r r r r r t t r r r - - x x x x x x x x x x x U U Y Y Y r r o 2 6 8 * 1 2 9 $ = ",
"z 8 > 6 Z , # 5 9 5 r r r r r t t r r r - - x x x x x x x x x x x U U Y Y Y r r 8 8 < < < > @ = o 9 ",
": < . 6   @ # > , 8 r r r r r t t r r r - - x x x x x x x x x x x U U Y Y Y r r 5 2 =   , , @ 2 > , ",
"  ,   6 . 7 < 4 > 4 r r G G G r r D D D r r D D D D D D r r D D D G G G G G r r 1 & X > , = 5 8 4 3 ",
"  4 O 1 v < T 3 n 5 r r G G G r r D D D r r D D D D D D r r D D D G G G G G r r $ c . $ 3 q M A 6 : ",
"R = = ; X , > Z   . . $ r r r G G G G G r r D D D D D D r r G G G G G Y Y Y , < 4 > $ $ : M q : O O ",
"E J d J W L Q l u N b d r r r G G G G G r r D D D D D D r r G G G G G Y Y Y 4 3 : ; @ > #   > O h N ",
"k l J ! k k Q ~ ^ / p / r r r G G G G G r r D D D D D D r r G G G G G Y Y Y C q O O 1 1 # = . 2 l d ",
"7 v 2 Z . & 7 % 2 , r r ( ( ( ) ) Y Y Y G G G G G G G G G G Y Y Y ) ) ( ( ( r r < > 9 v 9 2 5 v 5 5 ",
"% 5 @ S > 5 v &   : r r ( ( ( ) ) Y Y Y G G G G G G G G G G Y Y Y ) ) ( ( ( r r . X A 6 v % &   2 5 ",
"@ ; ; : O , = > O . r r ( ( ( ) ) Y Y Y G G G G G G G G G G Y Y Y ) ) ( ( ( r r 6 Z 2 X > 0 ; @ 9 1 ",
"  9 & , , = $ Y Y Y D D _ _ _ ) ) ` ` ` t t t t t t t t t t ` ` ` ) ) _ _ _ D D Y Y Y 5 = @ > @ * 1 ",
"o o 5 = 0 & 5 Y Y Y D D _ _ _ ) ) ` ` ` t t t t t t t t t t ` ` ` ) ) _ _ _ D D Y Y Y 9 2 Z z =   $ ",
"# > . 5 e 7 2 Y Y Y D D D D D - - r r r r r ' ' ' t t t ' ' ( ( ( - - D D D D D Y Y Y : X o   $ # o ",
"L m j J H P ^ Y Y Y D D D D D - - r r r r r ' ' ' t t t ' ' ( ( ( - - D D D D D Y Y Y : = n e 8 # 2 ",
"W h u i ! H b Y Y Y D D D D D - - r r r r r ' ' ' t t t ' ' ( ( ( - - D D D D D Y Y Y 1 = o o S q z ",
"o , Z Z 8 #       . Y Y r r r r r ( ( ( ( ( r r r r r r ( ( ( ( ( r r r r r Y Y e 9 0 ; $ 2 9 4 z q ",
"e 0 5 > 8 , $ 9 = $ Y Y r r r r r ( ( ( ( ( r r r r r r ( ( ( ( ( r r r r r Y Y 9 X O 6 . 5 1 # Z 3 ",
"V ; 0 > < 4 8 @ % & # . r r r t t r r r r r ` ` ` ` ` ` r r r r r t t r r r < . 8 X , >   Z . & 2 @ ",
"2 # * <     8 # e ; = : r r r t t r r r r r ` ` ` ` ` ` r r r r r t t r r r q > O = 8 Z z : > e 2 = ",
"z 6 2 < # v * 5 1 X < 6 r r r t t r r r r r ` ` ` ` ` ` r r r r r t t r r r C = * , c q 6 < > 2 ; 2 ",
"2 5 5 > $ 9 o O S 8 = o r r r - - - - - t t t t t - - - t t - - - - - r r r 6 o . O 8 8 # , < 6 : 3 ",
"% # 8 > . @ $ O C O # 9 r r r - - - - - t t t t t - - - t t - - - - - r r r $ 8 h N W l ] / h [ 4 q ",
"n = 6 . 6 z q c q 8 . 6 r r r - - - - - t t t t t - - - t t - - - - - r r r = 3 u L P P N [ { p @ < ",
"o , 6 . 6 4 : @ 2 & n 2 r r r } } } } } r r X   > # 9 ; r r } } } } } r r r @ q A 2 o 8 M 8     < 4 ",
"= O O @ = 2 > 9 V e * . r r r } } } } } r r ; . 4 < 5 % r r } } } } } r r r Z q M = # w S @ 2 # 8 3 ",
", C q # % 7 8 = e o @ q Z 5 = r r r r r O 8 % 5 , 8 # &   8 r r r r r = 2 4 q   > 6 4 O 5 $ . 2 < z ",
": < . O 2 & 1 5 @ 8 4 Z Z : 6 r r r r r >   5 $ j k H K o X r r r r r 3 > 8 6 O j $ > |  .# # i m m ",
"O . 2 O   9 1 & 8 3 z 4 4 3 z r r r r r = $ o . f s K P 9 o r r r r r 3 > < : S j 2 . ..X.# 2 j m m "
};
