/* XPM */
static char *_617f9e6281344bea005f416272969c3mN21G3zypCKpK9Xb[] = {
/* columns rows colors chars-per-pixel */
"50 50 198 2 ",
"   c #010202",
".  c #0B0102",
"X  c #020904",
"o  c #0C0B06",
"O  c #020409",
"+  c #0A030B",
"@  c #0A0A09",
"#  c #060A09",
"$  c #130403",
"%  c #1B0001",
"&  c #120A06",
"*  c #100D09",
"=  c #1F060C",
"-  c #000111",
";  c #050713",
":  c #150F11",
">  c #0C1210",
",  c #141514",
"<  c #1C1C1B",
"1  c #240303",
"2  c #2D0204",
"3  c #350101",
"4  c #3A0000",
"5  c #37000D",
"6  c #19231B",
"7  c #2B211F",
"8  c #3F2D1F",
"9  c #1C2624",
"0  c #232323",
"q  c #2C2C2C",
"w  c #282525",
"e  c #352B27",
"r  c #31322A",
"t  c #2D3238",
"y  c #313131",
"u  c #3D3D3D",
"i  c #430101",
"p  c #4C0000",
"a  c #530200",
"s  c #5D0400",
"d  c #55000C",
"f  c #5D161A",
"g  c #51180A",
"h  c #630302",
"j  c #6B0203",
"k  c #720201",
"l  c #7A0101",
"z  c #76040B",
"x  c #621F19",
"c  c #66231D",
"v  c #412E2A",
"b  c #5A382E",
"n  c #632526",
"m  c #393943",
"M  c gray27",
"N  c #4B4B4B",
"B  c #4E5B52",
"V  c #545454",
"C  c #555B54",
"Z  c #5C5D56",
"A  c #5B5C5B",
"S  c #58575C",
"D  c #614747",
"F  c #62504E",
"G  c #57625E",
"H  c #5C5B61",
"J  c #656565",
"K  c #6B6B6B",
"L  c #6A6C68",
"P  c #67706F",
"I  c #6A716A",
"U  c #747474",
"Y  c #7D7D7D",
"T  c #757976",
"R  c #687474",
"E  c #830001",
"W  c #8B0202",
"Q  c #86030D",
"!  c #8C030D",
"~  c #930203",
"^  c #9D0201",
"/  c #920008",
"(  c #9B020A",
")  c #9B0B0B",
"_  c #A40101",
"`  c #AB0101",
"'  c #A30901",
"]  c #AC0A05",
"[  c #A3000B",
"{  c #AC020A",
"}  c #A40C0B",
"|  c #B30102",
" . c #BB0202",
".. c #B3000A",
"X. c #B9010D",
"o. c #AF120B",
"O. c #A20018",
"+. c #A70013",
"@. c #B80010",
"#. c #B50015",
"$. c #B41116",
"%. c #B11B26",
"&. c #B6222A",
"*. c #B8252B",
"=. c #C20001",
"-. c #C40009",
";. c #B64654",
":. c #877E7F",
">. c #D94D4C",
",. c #C65354",
"<. c #CA575C",
"1. c #D7615F",
"2. c #D86B68",
"3. c #83817F",
"4. c #8E837D",
"5. c #E3857B",
"6. c #7F7E84",
"7. c #837F80",
"8. c #8A7E85",
"9. c #7E8482",
"0. c #7E898C",
"q. c #848483",
"w. c #8D8383",
"e. c #8D878A",
"r. c #8D8D8D",
"t. c #8C8D85",
"y. c #928884",
"u. c #928283",
"i. c #978A92",
"p. c #889D9C",
"a. c #949494",
"s. c #9B9B9B",
"d. c #979998",
"f. c #A4A4A4",
"g. c #ABABAB",
"h. c #ABA0A8",
"j. c #B1B0AE",
"k. c #B4B4B4",
"l. c #BABCBB",
"z. c #B9B2B9",
"x. c #AFB1B6",
"c. c #D3838A",
"v. c #D68981",
"b. c #D89993",
"n. c #ED8F87",
"m. c #EA9D95",
"M. c #D1A195",
"N. c #E9A099",
"B. c #E3B1B2",
"V. c #F0B3BA",
"C. c #C2C8BE",
"Z. c #F0C5BE",
"A. c #BFCAC6",
"S. c #C3C3C3",
"D. c #CBCBCB",
"F. c #C8C7C7",
"G. c #C7CED4",
"H. c #D3D3D3",
"J. c #DCD4D5",
"K. c #D9D9D5",
"L. c #D7D7D9",
"P. c #DCDCDC",
"I. c #F6C1C9",
"U. c #E3DCDB",
"Y. c #EFE0DA",
"T. c #FBE8DA",
"R. c #D7DAE2",
"E. c #E6DDE2",
"W. c #DCE6E7",
"Q. c #E2E1E2",
"!. c #EEE7EF",
"~. c #EEEEEE",
"^. c #EBE8E3",
"/. c #F3EBE4",
"(. c #FDECEE",
"). c #F3E9E9",
"_. c #ECF3ED",
"`. c #EDF9EB",
"'. c #ECF4E7",
"]. c #F7F2EF",
"[. c #FDF1EB",
"{. c #F6FAEE",
"}. c #EFEEF2",
"|. c #F7EFF8",
" X c #ECF4F4",
".X c #EFF8F6",
"XX c #F6F6F6",
"oX c #FCF5F3",
"OX c #F5FBF5",
"+X c #FBFBF5",
"@X c #F5F5FB",
"#X c #FCF5FB",
"$X c #F4FCFC",
"%X c #FEF9FF",
"&X c #F9FFFE",
"*X c #FFFFFF",
"=X c #FDFDFE",
"-X c #FCFCFC",
/* pixels */
"XXXXXXXX-XXXXXXXOXoX].XX$X@XXX#X{.U.K.K.U.L.R.K.P.P.P.P.P.R.P.L.E.XXXX$X@XoX@XOXOXXXXXXXOXXXXXXXXXXX",
"XXXXXX-XXXXXXX-X@X#X%XOXXX`..X'.-Xm + : * # > & o o o o o o o o r XX/. X`.[.$XOXXX-XXX~.%XXXXXXXXXXX",
"XXXXXXXXXXXXXXXXXXXXXX$X#X-X-X$X$Xt           O           O     9 $X-X-X$X-X%X#XXX].XX-X-XXXOXXX%XXX",
"XX-XXXXX-XXXXXXXOXOX&X~.y.w.y.w.w.c a p s a p i p a p p p p a a f 7.y.w.0.r.^.XXXX-X@XXXXXXXXXXXXXXX",
"XXXXXXXXXX-XXXXX#XXX@XQ.X   X O X E =.| X.| `  .| | | | |  .|  .! .     O X J.$XXXXXXXXXXX@XoX@X+X&X",
"XX-XXX-XXXXXXXXXoX-X$XW.>   O ; * Q | ^ _ { _ | ` _ ` ` _ _ _ _ ~ X X X   & J.%XXX-XXX+X-XOXOX@X@XXX",
"XXXXXXXXXXXXXXXX-XI 7 8 E E W Q l ^ _ ` ` ` ^ ] ` ` ` ` ` ` ` ` ` l W / ~ E v 6 L XXXX@XXXXXoX-XXXXX",
"XXXXXXXXXXXX-X-X-XA   X O.1.n.v.5.b.;.{ | ` ` ` ` ` ` ` ` ` ` ` | | ` | | _ & O N -X-X-XXXXXXXXXXX+X",
"-X[.+X$X`.+X!.z.C.D % i / I.-X-X-X%Xc.` ` ] ` ` ` ` _ ` ` ` ` ` | ^ ^ ` | / a $ b G.x.W.-XoX.XoX@XXX",
"@X-X X@X(.-Xx.X X j | $.' B.-X+XOX-Xc.] } ` ` ` ` ` ` ` ` ` _ ` | ` ` ` ` { ..#.z     h.-X~.@XOXXXXX",
"%X X$X%X%X-XS.. # j >.T.Y.-X-X-X-X-X|.Y.).%._ ] ` ` ` ` ` ` ` ` ' | | | _ ' ` | l X X j.-X-X#XoXXXXX",
"$X_.@X@XT G F j h W ,.-X-X-X-X-X-X-X-X+X&X%.] ` ` _ ` ` ` ` ` ` _ ` ` ` ` ` ` ` ~ j j D G I @X+XXX+X",
"XXOX#X#X< X 1 X. .` ,.-X+X+X&X#X-X-X-X-X-X*.' ` ` _ ` ` _ ` ` ` ` ` ' [ ` ` | |  .| ..4 . &  XXXXXXX",
"oX{.|.oXe   2  .^ ^ <.%X/.$X-X-X-X-X#X/.(.&.` ' ` ` ` ` ` ` ` ` ` ` ` ` _ _ _ _ ^ ] ` 4   w }.+XXXXX",
"oX@X@XOXe   1 ` { `  .$.] V.-X@X$X-Xc.o.} ] ` ` ` ` ` ` ` ` _ ` ` ` ` ` ` { ` | ' _ ` 4 O < }.oXXXOX",
"XX-X-X$X7 O 1 | ` ' ' _ _ I.-X&X-X%Xc.` ` ` | _ ` ` _ ` ` ` ` ` | ` ` ` ` ` ` ` _ |  .3 O 9 -X-X-X%X",
"-XS.i.p.g 4 h { _ ` ` _ ) 2.m.M.M.m.,.^ ` | _ ] ` _ ` ` ` ` ` ` ` ` ` _ ` ` ` ` _ ` [ k i g p.i.S.-X",
"%XY X   ( X.{ ` ` ` ` | _ { [ [ [ { ` ` | ` ` _ ` ` ` ` ` _ ` ` ` ` ` ` ` ` ` ` ` | | [ X.(     U XX",
"-Xq.. X ~ ..` ` | ] _ _ ] _ _ | | _ ' ] _ _ | ` ` ` ` ` ` ` ` ` ` _ ` ` ` ` _ ` | ` _ ' ` [ . X U -X",
"-Xw.. X E ..' ' ` ` ] _ | ` ] ` ^ ' ` ` ` ` { _ ` ` ` _ ` ` _ ` ` ` ` ` ` ` ` ` _ { ` ' ` W $ . T -X",
"-Xq.X . ^  ._ ` _ _ ` | | | ` ] ` | ` ` | | _ ] ` ` ` _ ` ` _ ` ` ` ` ` ` ` ` ` { { | _ | ^ .   U -X",
"-X0.    W ` _ | ' _ ` ` _ _ _ [ ] [ _ ] ` ` ` ` ` ` ` ` ` ` ` ` ` ` ` _ ` ` ` _ _ _ ` ' _ ~   X Y -X",
"-X8.O # E  .` ` ` ` ` ` ` | | ` | ` ` ` _ ` ` ` ` _ ` ` ` ` ` ` _ ` ` ` ` _ ` ` _ | ` ` | ~     U -X",
"$X8.. X ~ =.` ^ ] ` ` ` ` ` ` ` _ ` ` _ ] _ _ ` ` ` ` ` ` _ ` ` ` ` ` ` ` ` ` ` ] _ | _ ` ( .   U -X",
"$Xw.  . 5 d j _ _ ` ` ` ` ` ` ` _ { { { _ ` _ ` ^ [ { ` | ` _ ` ^ { ` ^ ` | _ ` _ { { ` ` ^ X O T -X",
"%Xw.  X   X 3 { ` ` ` { { ` ` ` ` _ _ ` | | { {  .| { _ _ _ [ ` |  .` ` ` ` _ `  ._ _ ` ` W   . T -X",
"-Xq.X + .   3 O.{ _ _ ` _ ` _ _ ` ^ ' _ [ ^ ' ` ` _ _ ] ` _ ` | ` ` ` ` | ` ` | ` ^ | { #.Q $   U -X",
"-Xq.X   O     $   k ` ] ^ ` j # = $ $ + + $ j | ` _ _ | | _ ` ` ` _ _ ` ` { _ _ ` ` ` 4   .     T -X",
"-Xw.  X O   . .   z =. . . .j O     . .   . s  ... .` | ` _ | ` ` ` | ` ` ..| | |  . .3 O   $   T -X",
"-X8.  O       O   i k j j k c Z S C C C C G n l j { ` ` { ^ ` _ ` _ | W j k k k h j l 1     + O T -X",
"-Xq.  +       X +     O   X P -X-X-X%X%X-X$XR   . W _ _ | _ ` _ ` _ ..a         .   .       - O T -X",
"-Xq.        .     X     .   I -X`.OX%X-XoX-XL X . [  .` | `  .| ` ` -.a   + O     O O         . T -X",
"-XH.k.j.< O < L K w         K -XXX-X-X-X-X-XK O % 1 2 2 3 3 2 2 3 2 2 %     . X 0 J K 0   < g.g.K.XX",
"XX-X-X-Xq   0 f.s.y   O .   K -X-X-X-X-X-X-XK   X                   X           0 f.s.y   0 -X-XXX-X",
"XX-XXXXXq   w a.d.M 0 w O   I -X-X-X-X-XXX-XL   O       O         #   > q 9 q w M a.a.q   0 XXXXXX@X",
"XXXXXXXXq   0 a.q.H.-XQ.: O K -X-X-XXXXXXX-XK   o O   O   + .   $ $   e.%X@X-X-XP.q.a.q O < XXXXXX+X",
"-XXXXXXX9   6 f.a.Q.-X}.  X J -X-X-X-X-X-XXXK                     O X 9.XX-X-X-XP.a.f.0   < ~.+XXX-X",
"XXXXXXXXr.Y U M u s.D.l.Y 3.:.q.6.3.q.Y q.q.q.q.:.:.q.q.3.3.7.q.9.T T l.-X-XF.D.g.u M U U q.XX@XXXXX",
"XX-XXX-X%XXXS.    V r.a.-X-Xa.            O a.-X$X-X-X-X-X-X-X-X-X-X-X-X-XXXs.r.C     z.-X-XXXXXXX-X",
"XXXXXXXXXX-Xz.    A a.s._.-Xa.  O @ @ @ o   a.-XOXXX-X%X%X-X-X-X-X-XXX-X-X-Xs.a.J O   g.-X~.XXXXXXXX",
"XXXXXXXX-X-X~.H.Q.S @ 0 a.a.z.P.H.P.P.P.P.H.XX-X-X-X-X-X-X-X-X-X_.s.s.d.s.s.w + N Q.H.~.+XXXXX-X-XXX",
"&XXXXXXXXXXXXX-XXXZ     a.a.F.&X-X%X-X-X-X-X-X-X-X-X-X-X-X-X-X-XXXa.i.s.a.r.#   M -X-XXXXXXX+X@XXXXX",
"XXXXXX-XXXXXXXXX-Xq.u N J H q.l.k.H.Q.Q.P.P.Q.P.Q.W.W.Y.Q.Q.U.Q.S.L J J L L N M q.XXXXXXXX@XXXXXXXXX",
"-XXXXXXX-XXXXXXXXX-X-X~.o         I e.q.q.e.r.q.w.q.q.e.q.q.q.e.U O     O   Q.-X-X-XXXXXXX+X@X-X-XXX",
"XXXXXXXXXXXX-XXXXXXXXXP.          U f.d.s.a.a.d.d.d.d.s.d.d.s.s.T X         L.-XXXXXXXXXXX-XXXXXXXXX",
"XXXX-X-XXXXXXXXXXXXXXXXXg.g.f.f.f.N q y y y y y y q y y q y y y M h.f.g.f.g.XX_.XX-XXXXXXXXXXXXXXX-X",
"-XXXXXXXXX-X-X-XXX-XXXXXXX-X-X-X-Xq                             0 -X-X-X-X-XXX-X@XXXXXXX-XXX-XXXXXXX",
"XXXX-XXXXXXXXXXXXXXXXXXXXXXXXXXXXXM < , 0 < < < < < < < < < < , u XXXXXX].XX@XXXXX+X-X+XXXXXXXXXXXXX",
"XXXXXX-XXXXX-XXXXXXXXXXXXXXXXXXXXXXXXX~.~.~.~.XX~.XX~.XX~.~.XX~.XXXXXX-X+XXX+X@XXX+X@X@XXXXX-XXXXXXX",
"XX-XXXXXXXXXXXXX-XXXXX-X-XXXXXXX-XXX-XXXXX-X-XXX-XXXXXXX-XXXXX-XXXXXXXXX@XXX+XXXXX@XXX+XXXXXXXXX-XXX"
};
