/* XPM */
static char *pokeball1675965154[] = {
/* columns rows colors chars-per-pixel */
"50 50 194 2 ",
"   c #030101",
".  c #0B0101",
"X  c #0A0B05",
"o  c #05060A",
"O  c #0B030A",
"+  c #0A0C0A",
"@  c #050A04",
"#  c #120200",
"$  c #1C0001",
"%  c #100708",
"&  c #130D0D",
"*  c #1C1B1C",
"=  c #171515",
"-  c #250000",
";  c #2A0001",
":  c #340000",
">  c #3A0001",
",  c #3B0804",
"<  c #380E10",
"1  c #2C1F16",
"2  c #1B2319",
"3  c #2C1D20",
"4  c #232222",
"5  c #29292B",
"6  c #302720",
"7  c #302B2F",
"8  c #2D3B2C",
"9  c #323233",
"0  c #353B35",
"q  c #3D3D3F",
"w  c #430000",
"e  c #590000",
"r  c #520F0A",
"t  c #5A0B07",
"y  c #5B120F",
"u  c #491417",
"i  c #5A1616",
"p  c #610000",
"a  c #6B0203",
"s  c #680A08",
"d  c #670708",
"f  c #700108",
"g  c #79070A",
"h  c #7E110E",
"j  c #670C11",
"k  c #770B12",
"l  c #6C1211",
"z  c #69161B",
"x  c #7C1214",
"c  c #761A19",
"v  c #6B1C22",
"b  c #7C1D21",
"n  c #472523",
"m  c #5B282A",
"M  c #7C2925",
"N  c #662829",
"B  c DarkGreen",
"V  c #0C6C06",
"C  c #0E6B0A",
"Z  c #066905",
"A  c #126C0E",
"S  c #0E710A",
"D  c #077906",
"F  c #127A0F",
"G  c #156F10",
"H  c #177012",
"J  c #1B7416",
"K  c #157C11",
"L  c #1A7914",
"P  c #1D7719",
"I  c #1F781A",
"U  c #227B1D",
"Y  c #364138",
"T  c #257E20",
"R  c #287F21",
"E  c #2D7D29",
"W  c #327829",
"Q  c #3D7F39",
"!  c #40443E",
"~  c #444544",
"^  c #484B47",
"/  c #5B5C5A",
"(  c #734C4F",
")  c #6A4B51",
"_  c #6D5055",
"`  c #775053",
"'  c #65615E",
"]  c #6E6465",
"[  c #67676A",
"{  c #67686A",
"}  c #77696B",
"|  c #6F706B",
" . c #7C7C7C",
".. c #727372",
"X. c #8C0D0C",
"o. c #870908",
"O. c #9D0201",
"+. c #930A06",
"@. c #9A0905",
"#. c #9D060C",
"$. c #930B0B",
"%. c #9B0A0B",
"&. c #950409",
"*. c #86120D",
"=. c #951206",
"-. c #8C0E12",
";. c #950B14",
":. c #9D0A14",
">. c #940B14",
",. c #841414",
"<. c #8A1314",
"1. c #84141B",
"2. c #811A1B",
"3. c #8A1A18",
"4. c #92191B",
"5. c #9C1314",
"6. c #A50202",
"7. c #AB0202",
"8. c #A50905",
"9. c #A3050A",
"0. c #A9020A",
"q. c #A30A0B",
"w. c #AC090B",
"e. c #AD0A05",
"r. c #B10203",
"t. c #B00807",
"y. c #B2040A",
"u. c #A70D19",
"i. c #8B1D26",
"p. c #921620",
"a. c #846867",
"s. c #C74F50",
"d. c #C95256",
"f. c #098506",
"g. c #158313",
"h. c #1B8316",
"j. c #1C831A",
"k. c #089807",
"l. c #24821F",
"z. c #278022",
"x. c #2A8325",
"c. c #2D8628",
"v. c #2F882A",
"b. c #328B2D",
"n. c #32832E",
"m. c #358E30",
"M. c #369032",
"N. c #399234",
"B. c #41893D",
"V. c #84807F",
"C. c #7F7F81",
"Z. c #838284",
"A. c #8A8989",
"S. c #938F8E",
"D. c #95948F",
"F. c #978E91",
"G. c #8D9190",
"H. c #959693",
"J. c #96959A",
"K. c #9C9B9D",
"L. c #BB8D8D",
"P. c #A09798",
"I. c #BF9B9B",
"U. c #ACABA9",
"Y. c #BAB9B7",
"T. c #ED9594",
"R. c #CECECD",
"E. c #C9C6C9",
"W. c #DDD7D7",
"Q. c #DBDCDA",
"!. c #D3D7D3",
"~. c #FFCBC8",
"^. c #FFD0CA",
"/. c #E5DFDF",
"(. c #FFDFDB",
"). c #DCE3DC",
"_. c #E0E0DE",
"`. c #FFE2D5",
"'. c #E0DEE1",
"]. c #DFE0E2",
"[. c #E4E3E5",
"{. c #FFE0E6",
"}. c #FFEBE5",
"|. c #FFE7EC",
" X c #FFEBEC",
".X c #F1F2ED",
"XX c #FFF3EF",
"oX c #EEF2F1",
"OX c #F6F5F6",
"+X c #FEF2F2",
"@X c #F6FAF5",
"#X c #FDF7FC",
"$X c #FDFBFC",
"%X c #F6FBF9",
/* pixels */
"U T x.x.I C R x.z.m.m.b.b.m.z.c.m.m.c.c.T P G C J U N.b.G G H x.m.m.x.z.M.x.z.c.v.x.P P z.z.z.x.U U ",
"U x.x.T U U U U T c.x.R z.R z.c.c.I R m.x.T I U J v.N.m.U U U c.c.x.z.z.m.c.z.z.c.c.I G J I z.z.z.z.",
"U c.c.I R M.U U P z.c.T x.T T T U I z.M.b.v.U I T N.x.z.x.x.c.z.T z.T z.c.c.c.T z.v.I G G J I U v.c.",
"U b.m.I T m.T R T b.m.P z.x.I U z.z.c.z.M.N.P H J x.z.x.v.x.n.z.n.m.m.m.z.c.T G H I I T x.c.v.v.z.U ",
"T v.v.U U x.c.c.P n.m.T c.m.H P b.z.U T M.m.I T U z.v.v.z.T x.v.z.b.c.c.T z.z.T I U J I x.x.v.v.x.U ",
"T R x.I U U v.x.G T v.v.m.m.A P M.I P I z.z.z.v.b.U R T U U z.v.b.z.U T J J U I T I G G z.x.b.m.z.U ",
"U U U I U T R T I U T c.z.T U R x.I U P I z.b.z.T A G J z.z.x.c.c.R I T R R c.T z.c.z.c.M.b.x.I z.U ",
"J U I I U x.I T T I T c.T T N.c.T z.T P z.z.v.z.P J A A T U T c.c.z.T I c.v.c.P U v.c.b.M.M.x.P J I ",
"R T J J I U m.m.x.P T z.x.c.m.c.J v.T I x.z.I v.m.G P z.H G z.z.z.U n.M.v.b.v.P G A x.c.R m.m.R P F ",
"I T c.c.z.I R R T G J c.T T z.R z.x.T I T T J I I T b.b.T T c.P P P v.x.U z.c.z.x.z.M.n.z.N.m.x.U I ",
"U T c.c.R I T U I G G v.T J T z.x.T I I I T T I G z.M.m.v.x.T U U U R T T z.z.c.c.c.m.z.R m.m.c.U I ",
"G I R T J G R v.T G G x.T U c.x.x.I I T z.x.x.T P U I I U U U T T T U T z.z.U z.T U T P T c.R I U I ",
"G J T T E z.m.M.x.x.c.c.T J c.b.x.T J H I U T l.T I J G H U x.x.T U U U U J G T z.z.z.z.x.x.T I T I ",
"U T R c.m.v.m.v.m.m.m.x.R R x.z.x.l.J H I I I x.T T T I I z.x.x.J G U R T G G P U U z.c.c.R I I T z.",
"T R c.c.T H T x.N.c.T I c.b.I J I I U x.b.x.T U I I I T z.I I l.z.T m.N.m.b.c.R I G G J R c.T G T z.",
"x.T T T T H I U c.x.c.R T R G x.U I x.M.m.x.T P U T I U z.z.T z.R I c.b.z.c.b.R T T I I T x.c.I U T ",
"M.T G I x.c.I P T c.b.m.I A x.c.v.x.v.m.M.c.z.U U c.I C T v.c.R T C U U C T b.x.x.x.m.v.T x.v.R U U ",
"U z.z.z.T I U T T R x.x.J J x.c.M.x.b.v.z.c.M.T I I I U I J J U I U U R v.E x.c.v.N.x.U x.T J T b.b.",
"z.z.v.z.z.T T U I T T T U T x.c.M.T T v.P H x.x.T I T T J U T G J c.U U R R c.c.x.x.T R x.U J T x.c.",
"b.c.x.b.m.T U I A T c.x.c.c.R c.x.J C T I G G I x.U U U T x.c.I U x.U H J J U x.T H U b.c.R c.T P H ",
"v.U U M.M.v.I I I I I J c.m.b.c.z.v.x.z.P G G I I U P U c.R T c.x.R U U c.I C x.v.T J R m.m.c.x.U U ",
"U P J z.x.c.z.T T T J I x.b.c.U U M.N.x.C C U U J z.I P R T U b.b.U U R b.R G U c.x.I I v.m.c.c.l.z.",
"H I U I J U R c.c.c.R T G G x.b.U b.b.z.n - : : : : > : ; < x.c.v.U J T T T T U U U U U U U T R c.c.",
"P I z.I T R x.U U I T m.x.I U C H o + O i c b 1.1.,.*.<.c j $ .   T J I R I I R x.x.R T U U T c.U U ",
"T U T I T M.U P U P U b.b.z.K f.H $ # - l -.&.%.%.+.@.O.%.g w ; ; x.g.j.x.I A c.b.m.x.U U z.c.U J H ",
"T J I b.b.I C G M.c.U I H P h.W - m I.L.T.h %.6.6.6.6.6.8.q.X.2.v - W k.I I P x.R G T z.H A A H U P ",
"C z.z.b.z.U T J U z.z.z.x.x.$ u b z XXXX XM 3.q.0.7.0.6.6.6.O.%.;.p.i $ x.U U U I U R z.U A A I P P ",
"G c.v.x.z.T b.c.H L U v.M.b.: d d.~. X$X}.^.~.+.0.7.7.6.e.t.r.7.9.u.f : v.T I G I v.R U z.U U P J P ",
"x.v.v.z.c.x.b.M.z.T I z.2 $ i.;.s.`.+X+XXX}.`.=.8.7.7.7.7.7.7.6.y.0.u.p.$ X A G I P b.b.z.z.R c.c.c.",
"M.b.x.J T m.M.M.c.I J I 6 - >.9.5.c  X X XM 3.=.6.7.0.r.r.7.7.7.r.7.y.;.: 1 A U U U c.b.c.c.c.b.c.c.",
"M.v.z.J U c.b.M.T P P T u w q.7.q.o.|. X{.<.+.6.6.7.7.7.r.7.7.7.7.e.0.:.w u J T T x.H U b.b.N.U x.c.",
"z.v.v.P I U z.U P T v.$ z p.O.7.6.&.p.x X.%.8.7.7.7.7.r.r.7.7.7.7.6.7.#.4.v # J U J x.x.U b.b.U v.b.",
"U v.m.U U z.z.J G z.M.$ k #.w.7.e.w.9.q.q.9.7.7.7.7.r.7.7.r.7.7.7.7.7.9.:.g $ I G G x.c.z.T T T b.b.",
"x.c.c.z.v.M.c.U H l.z.$ k u.O.7.7.7.r.r.7.7.6.6.6.6.7.r.7.6.6.6.r.7.6.w.9.<.- P J G I c.x.J G z.U U ",
"x.U T c.b.M.x.T I T T $ j ;.#.7.7.7.r.e.7.7.6.7.7.7.7.7.7.6.6.9.6.7.7.9.q.g $ I I G G P x.c.T T x.c.",
"z.I I x.b.M.z.T J U T O , p ;.O.7.7.6.8.%.$.#.O.O.7.r.r.e.9.8.O.7.e.7.O.$.x $ I I I I I x.m.m.U x.x.",
"x.L G I x.m.U J P U U   . ; x :.8.6.+.*.x 1.<.5.9.7.e.6.6.7.0.7.7.7.y.8.,.y $ z.x.c.m.b.T x.c.J G G ",
"x.I J J I z.T T U U U @   $ > a X.$.a w : > w a +.6.e.6.7.7.6.9.#.@.&.-.> ; # N.m.c.v.c.T c.c.J G G ",
"m.v.v.U I T z.c.z.R U     . $ , r r m ` _ ) ( N a X.@.6.7.6.q.o.s t d r $   o M.c.x.I U T c.b.x.J H ",
"N.v.v.T U J I z.m.m.x..   . # . $ $ } #X$X$X#Xa.: l h X.X.X.<.e ; $ $ $     o U U x.U U U J T m.c.l.",
"x.R v.U T U U x.b.b.A N.1 o { 4   . ] $X$X$X$X} $ ; ; > > > ; - # O 1 ]   * G U J R I J G J T m.x.z.",
"G U x.I R b.v.c.b.x.J G 7 o H.^ 4   ..$X$X$X%X[ O O . O . . . & 3 7 ~ K.  5 A z.b.U G G I U U x.b.x.",
"c.c.c.T R c.x.I J U R c.5   K.R.@X& { $X$XOXOX| & O O O . O   A.OX#XW.J.  * L c.T I I U z.U U I P G ",
"m.x.I T T T T I A I z.h.I Q ^ K.!. .C.A.Z. .Z.Z.C.Z.A. .Z.V. .Y.#XE.U.! x.h.K I I J z.c.v.T J A P G ",
"N.R I T I G G A G I T P Z S o / D..XH.  @ @ + H.%X%X@X%X$X%XOX%X#XS.'   f.f.j.H G z.M.m.P C G T U U ",
"x.T I T I I I T x.M.M.x.I U U / X D.Y.!.).Q.)..X%X$X%X$X%XoXK.K.K.+ ^ x.z.I U H H x.c.I G I U T U P ",
"R J I T x.x.U v.N.m.v.T z.v.D x.q [ A.Y.R.).W._.[.Q.[._.].E.[ [ { Y z.f.z.j.H G G z.z.J H T x.z.U A ",
"T G G R m.m.U z.b.c.T G J v.L g.I     o ..P.P.F.K.J.P.J.J. .      K D F z.P G T T P P I c.R T c.U G ",
"J I T I x.m.m.x.R I P J J I I P G T C n.8 9 9 5 9 9 9 5 0 ~ T K j.j.V V K L P P P l.U x.U x.U U U P ",
"I R x.I T x.m.m.I G G J P G G G G Z B D 0 = * 4 * * * 4 * 0 K S S x.V V L U P H U x.U U H x.x.U P P "
};
