/* XPM */
static char *ea690f2c6e664201b0c398e2c4d119a9yEff8kcwnFGLdqxK[] = {
/* columns rows colors chars-per-pixel */
"50 50 88 1 ",
"  c #247D1F",
". c #257E20",
"X c #2A8325",
"o c #2C8527",
"O c #1E7719",
"+ c #0F680A",
"@ c #267F21",
"# c #298224",
"$ c #278022",
"% c #368F31",
"& c #358E30",
"* c #318A2C",
"= c #288123",
"- c #379032",
"; c #486020",
": c #689020",
"> c #348D2F",
", c #30892B",
"< c #1D7618",
"1 c #237C1E",
"2 c #227B1D",
"3 c #217A1C",
"4 c #2F882A",
"5 c #709828",
"6 c #338C2E",
"7 c #2B8426",
"8 c #177012",
"9 c #1C7517",
"0 c #2D8628",
"q c #1F781A",
"w c #20791B",
"e c #2E8729",
"r c #156E10",
"t c #1A7315",
"y c #404030",
"u c #80A830",
"i c #146F10",
"p c #207B1C",
"a c #217C1D",
"s c #288324",
"d c #2B8627",
"f c #2D8829",
"g c #1F7A1B",
"h c #227D1E",
"j c #1B7617",
"k c #1E791A",
"l c #2A8526",
"z c #2E892A",
"x c #166F11",
"c c #1B7416",
"v c #146D0F",
"b c #328B2D",
"n c #237E1F",
"m c #399234",
"M c #1D7819",
"N c #136C0E",
"B c #1C7718",
"V c #177213",
"C c #587820",
"Z c #389133",
"A c #608820",
"S c #405028",
"D c #308B2C",
"F c #328D2E",
"G c #486818",
"H c #258021",
"J c #2C8728",
"K c #278223",
"L c #298425",
"P c #197214",
"I c #484038",
"U c #605038",
"Y c #504838",
"T c #126B0D",
"R c #386058",
"E c #2F8A2B",
"W c #247F20",
"Q c #116C0D",
"! c #705840",
"~ c #359031",
"^ c #157011",
"/ c #187113",
"( c #886840",
") c #287F21",
"_ c #1F7618",
"` c #348F30",
"' c #257C1E",
"] c #1A7113",
/* pixels */
" .XoO+@#$%&**&=o&-;;;;::::::;;;;>&o#&X=X,oO<@===11",
" =#.2 31.oX@X=#4o;::::555555::::;o@#6o##7oO893@=$=",
"100q@-q1w70 X1. 2;::::555555::::;$1Xe47 =e3rrt3 0o",
"1*>q.-.X >>O$yy:::55555uuuu55555:::yyo@8ippasdff=1",
" e6337ee<*& 4::::uuu55uuuuuu55uuu::::=X2ghjkslfz7 ",
".$Xqw ,Xx 4,%::::uuu55uuuuuu55uuu::::c33 wv8.o*&$3",
"322q3.= 33$oy::55uuuuu555555uuuuu55::y7$$o$o&bX3nh",
"93ww3Xw21wyy:::55uuuuu555555uuuuu55:::yy2eebm%X<jM",
"#1O9q36-X<yy:::55uuuuu555555uuuuu55:::yyxNX7@%&=BV",
"q oo=q==CC:::::55uuuuu555555uuuuu55:::::CC%4#Z%Xpk",
"w@eo$O yCC::555555uuuuu5555uuuuu555555::CCy7.b64pk",
"vwX cx=yCC::555555uuuuu5555uuuuu555555::CCyw e=3ap",
"x9 @X#%CCC::55555555uu555555uu55555555::CCC#7=3O11",
"11=0>yyCCCCC:555555555555555555555555:CCCCCyy=2q @",
" $eo yyCCCCC:555555555555555555555555:CCCCCyy4@v@X",
"0$.. CCCAAAACCC;;:55555555555555:;;CCCAAAACCCo0q2.",
"-1NyySSCAAAACCC;;:::5555555555:::;;CCCAAAACSSyy@ap",
"2@#yySSCAAAACCC;;:::5555555555:::;;CCCAAAACSSyy.zD",
"##y;;SSCCCAACCCCC:::::555555:::::CCCCCAACCCSS;;yld",
"FlS;;GGSCCCCACCCCC::::555555:::::CCCCACCCCSGG;;SjV",
"fnS;;GGSCCCCACCCCC::::555555:::::CCCCACCCCSGG;;S1q",
"yyS;;GGGSSCCAAAAACCCCC;;;;;;CCCCCAAAAACCSSGGGSSSyy",
"SSS;;GGGGGCCAAACCCCCCCCCCCCCCCCCCCCAAACCGGGGG;;SSS",
"SSS;;GGGGGCCAAACCCCCCCCCCCCCCCCCCCCAAACCGGGGG;;SSS",
"SSy;;GGGGGCCCCCCCAAAAACCCCCCAAAAACCCCCCCGGGGG;;ySS",
"SSy;;GGGGGGGCSSCCAAAAAACCCCAAAAAACCSSCGGGGGGG;;ySS",
"yySyy;;;GGGGGCCCCAAAAAACCCCAAAAAACCCCGGGGG;;;yySyy",
"yySyy;;;GGGGGCCCCAAAAAACCCCAAAAAACCCCGGGGG;;;yySyy",
"yyS;;yy;GGGGGGGSSCCCAAACCCCAAACCCSSGGGGGGG;yy;;Syy",
"-bySSSS;GG;;GGGGGSSSCCCCCCCCCCSSSGGGGG;;GG;SSSSy00",
"%0ySSSS;GG;;GGGGGSSSCCCCCCCCCCSSSGGGGG;;GG;SSSSy70",
"@,,SSSSS;;;;GGGGG;GGGGGGGGGGGGGG;GGGGG;;;;SSSSS@e6",
" e&yySSSSSyyGGGGG;GGGGGGGGGGGGGG;GGGGGyySSSSSyy@*6",
"oo0yySSSSSyyGGGGG;GGGGGGGGGGGGGG;GGGGGyySSSSSyy= $",
"#1.yySSSSSSSy;;;;;;;GGGGGGGGGG;;;;;;;ySSSSSSSyy$#o",
"HMkJFyySSSSSS;;;;y;;;;GGGGGG;;;;y;;;;SSSSSSyym>w#7",
"KjipLyySSSSSS;;;;y;;;;GGGGGG;;;;y;;;;SSSSSSyyooPrx",
"o2ccw# SSS;;SSSSSS;;SSSSSSSSSS;;SSSSSS;;SSS,$7e9xr",
">401w2$e=$yySSSSSS;;SSSSSSSSSS;;SSSSSSyyeXOq.06#c8",
"Z,4139w@%&yySSSSSS;;SSSSSSSSSS;;SSSSSSyywX21 c.&7@",
"7#*3  w#>,=<yyySS;;;;;SSSSSS;;;;;SSyyyr1O=wcx<1>7=",
"xq73#b*06X3q*IIUUYYYUU;;;;;;UUYYYUUIIxT=*2vrq317,7",
"7001$eoOPw=o7IIUUYYYUU;;;;;;UUYYYUUII1qo.Oww#23q<8",
"%#w1.@$OTO#eRUUUUUYYUUUUUUUUUUYYUUUUUR$wjBKzEWjQ9r",
"m=q.qxrvrw.qRYYUUUYY!!UUUUUU!!YYUUUYYR=8iH~~BQ^a@3",
"o2q.q9<@7&m7RYYUUUYY!!UUUUUU!!YYUUUYYR@r/7owNw  39",
"=OO@=71eZ>*.$RRYYIII!!!!!!!!!!IIIYYRR crN=#tP@7#w8",
"2Tr#%-w=>o@rc0=#33coII!((((!II,<rw1=79r 1q9O0$.73x",
"<3.O7&60@w9cc<q<c3 eII!((((!II7w<*881wqOk$1)_##pMM",
"O.7O e6&w8x998xx/3$6=$o.gd`~eo0236x813<Pk7.']#7kMM"
};
